<svg width="88" height="88" viewBox="0 0 88 88" fill="none" xmlns="http://www.w3.org/2000/svg">
<path d="M3.66667 33.6661L42.5077 58.1817C42.9513 58.5067 43.4757 58.6667 44 58.6667C44.5243 58.6667 45.0487 58.5067 45.4923 58.1817L84.3333 33.6661L45.5125 4.16543C44.6151 3.50042 43.3849 3.50042 42.4875 4.16543L3.66667 33.6661Z" fill="#FFC701"/>
<path d="M68.1389 3.66667H16.1944C13.3323 3.66667 11 6.03739 11 8.94667V67.0267C11 68.484 12.1636 69.6667 13.5972 69.6667H70.7361C72.1698 69.6667 73.3333 68.484 73.3333 67.0267V8.94667C73.3333 6.03739 71.0062 3.66667 68.1389 3.66667Z" fill="#ECEFF1"/>
<path d="M26.3542 18.7917H61.6458C63.0373 18.7917 64.1667 17.6623 64.1667 16.2708C64.1667 14.8793 63.0373 13.75 61.6458 13.75H26.3542C24.9627 13.75 23.8333 14.8793 23.8333 16.2708C23.8333 17.6623 24.9627 18.7917 26.3542 18.7917Z" fill="#A6A9B4"/>
<path d="M61.6458 23.8333H26.3542C24.9627 23.8333 23.8333 24.9627 23.8333 26.3542C23.8333 27.7457 24.9627 28.875 26.3542 28.875H61.6458C63.0373 28.875 64.1667 27.7457 64.1667 26.3542C64.1667 24.9627 63.0373 23.8333 61.6458 23.8333Z" fill="#A6A9B4"/>
<path d="M46.5208 33.9167H26.3542C24.9627 33.9167 23.8333 35.046 23.8333 36.4375C23.8333 37.829 24.9627 38.9583 26.3542 38.9583H46.5208C47.9123 38.9583 49.0417 37.829 49.0417 36.4375C49.0417 35.046 47.9123 33.9167 46.5208 33.9167Z" fill="#A6A9B4"/>
<path d="M45.4923 58.1687C45.0487 58.5024 44.5243 58.6667 44 58.6667C43.4757 58.6667 42.9513 58.5024 42.5077 58.1687L3.66667 33V79.2C3.66667 82.0336 5.92534 84.3333 8.70834 84.3333H79.2917C82.0747 84.3333 84.3333 82.0336 84.3333 79.2V33L45.4923 58.1687Z" fill="url(#paint0_linear_418_7357)"/>
<path d="M79.2917 84.3333H8.70834C5.87996 84.3333 3.66667 82.1046 3.66667 79.2564C3.66667 78.4492 4.04984 77.6876 4.69517 77.2104L42.5077 51.8258C42.9513 51.4958 43.4757 51.3333 44 51.3333C44.5243 51.3333 45.0487 51.4958 45.4923 51.8258L83.3048 77.2104C83.9502 77.6876 84.3333 78.4492 84.3333 79.2564C84.3333 82.1046 82.12 84.3333 79.2917 84.3333Z" fill="#FFC701"/>
<defs>
<linearGradient id="paint0_linear_418_7357" x1="44" y1="33" x2="44" y2="84.3333" gradientUnits="userSpaceOnUse">
<stop stop-color="#FF9701"/>
<stop offset="0.526042" stop-color="#FFBD00"/>
<stop offset="1" stop-color="#FFD501"/>
</linearGradient>
</defs>
</svg>
