<svg width="88" height="88" viewBox="0 0 88 88" fill="none" xmlns="http://www.w3.org/2000/svg">
<path fill-rule="evenodd" clip-rule="evenodd" d="M43.8472 77C25.6667 77 11 62.1806 11 44C11 25.8194 25.8194 11 44 11C62.1806 11 77 25.8194 77 44C76.8472 62.1806 62.0278 77 43.8472 77Z" fill="#5DC887"/>
<path fill-rule="evenodd" clip-rule="evenodd" d="M38.4413 62.3333C38.1281 62.3333 37.8149 62.1679 37.6584 62.0026L23.5658 47.121C22.4698 46.1289 22 44.806 22 43.3179C22 41.8297 22.4698 40.3416 23.5658 39.5148C25.4448 37.3652 28.8897 37.3652 30.9253 39.3495L38.2847 47.121L57.0747 27.2788C59.1103 25.1292 62.5552 25.1292 64.4342 27.2788C65.5303 28.2709 66 29.5937 66 31.2472C66 32.7354 65.5303 34.0582 64.4342 35.2157L39.3808 61.6719C39.2242 61.6719 39.2242 61.8372 39.2242 62.0026C38.911 62.1679 38.5979 62.3333 38.4413 62.3333Z" fill="white"/>
<g><path fill-rule="evenodd" clip-rule="evenodd" d="M41.381 5.49996C40.7823 5.49996 40.3333 5.15075 40.3333 4.68514C40.3333 4.21954 40.7823 3.75393 41.381 3.75393C43.0272 3.63753 44.9728 3.63753 46.6191 3.75393C47.2177 3.75393 47.6667 4.10313 47.6667 4.56874C47.517 5.15075 47.068 5.49996 46.4694 5.38356C44.8231 5.26716 43.0272 5.26716 41.5306 5.49996C41.5306 5.49996 41.5306 5.49996 41.381 5.49996Z" fill="#5DC887"/>
<path fill-rule="evenodd" clip-rule="evenodd" d="M65.5837 12.4928C65.2686 12.4928 65.1111 12.3352 64.9535 12.3352C64.3233 11.8626 63.6931 11.39 62.9054 11.0749C61.9602 10.4447 61.0149 9.97207 60.2272 9.65698C59.7545 9.34189 59.4394 8.55416 59.7545 8.08152C60.0696 7.60889 60.6998 7.2938 61.33 7.60889C62.1177 8.08152 63.063 8.55416 64.1658 9.18434C64.796 9.49943 65.5837 9.97207 66.2139 10.4447C66.6865 10.7598 66.844 11.39 66.529 12.0202C66.2139 12.3352 65.8988 12.4928 65.5837 12.4928Z" fill="#5DC887"/>
<path fill-rule="evenodd" clip-rule="evenodd" d="M78.975 27.6169C78.5023 27.6169 78.1873 27.4594 77.8722 26.9867C77.5571 26.3566 77.242 25.7264 76.9269 24.9387L76.6118 24.466C76.1392 23.8358 75.8241 23.2057 75.3514 22.5755C74.8788 22.1028 75.0364 21.3151 75.509 21C76.1392 20.5274 76.7694 20.6849 77.0844 21.3151C77.5571 21.9453 78.0297 22.5755 78.5023 23.3632L78.8174 23.8358C79.2901 24.466 79.6052 25.2537 79.9203 26.0415C80.2353 26.6717 79.9203 27.3018 79.4476 27.6169C79.2901 27.6169 79.1325 27.6169 78.975 27.6169Z" fill="#5DC887"/>
<path fill-rule="evenodd" clip-rule="evenodd" d="M83.0712 47.4678H82.9137C82.2835 47.4678 81.8109 46.9951 81.9684 46.3649C81.9684 45.5772 81.9684 44.7895 81.9684 44.0018C81.9684 42.8989 81.9684 41.9537 81.9684 41.0084C81.8109 40.3782 82.2835 39.9056 82.9137 39.748C83.7014 39.748 84.174 40.2207 84.174 40.8509C84.3316 41.9537 84.3316 42.8989 84.3316 44.0018V46.5225C84.174 47.1527 83.7014 47.4678 83.0712 47.4678Z" fill="#5DC887"/>
<path fill-rule="evenodd" clip-rule="evenodd" d="M76.6119 66.6882C76.4543 66.6882 76.1392 66.6882 75.9817 66.5307C75.509 66.2156 75.3515 65.4279 75.6666 64.9552C76.1392 64.325 76.6119 63.6949 76.9269 63.0647V62.9071C77.3996 62.1194 77.8722 61.1741 78.3449 60.3864C78.5024 59.7562 79.2901 59.5987 79.7628 59.9138C80.3929 60.0713 80.5505 60.859 80.3929 61.3317C79.9203 62.1194 79.4477 63.2222 78.975 64.1675C78.5024 64.7977 78.0298 65.4279 77.7147 66.2156C77.3996 66.5307 76.9269 66.6882 76.6119 66.6882Z" fill="#5DC887"/>
<path fill-rule="evenodd" clip-rule="evenodd" d="M61.33 80.2374C61.0149 80.2374 60.5423 79.9223 60.3847 79.6072C60.0696 78.977 60.3847 78.3469 60.8573 78.0318C61.6451 77.7167 62.2752 77.244 62.9054 76.929C63.6932 76.4563 64.6384 75.9837 65.4261 75.3535C65.8988 75.0384 66.6865 75.196 67.0016 75.6686C67.3167 76.1412 67.1591 76.929 66.6865 77.244C65.8988 77.8742 64.9535 78.3469 64.0082 78.8195C63.3781 79.2921 62.5903 79.6072 61.8026 80.0799C61.8026 80.2374 61.6451 80.2374 61.33 80.2374Z" fill="#5DC887"/>
<path fill-rule="evenodd" clip-rule="evenodd" d="M43.8425 84.3335C43.0547 84.3335 42.267 84.3335 41.4793 84.176C40.8491 84.176 40.3765 83.7034 40.3765 83.0732C40.534 82.2855 41.0066 81.8128 41.6368 81.9704H44H46.9934C47.6235 81.8128 48.0962 82.2855 48.0962 83.0732C48.2537 83.7034 47.7811 84.176 47.1509 84.176C46.0481 84.3335 44.9453 84.3335 43.8425 84.3335Z" fill="#5DC887"/>
<path fill-rule="evenodd" clip-rule="evenodd" d="M26.9851 80.5524C26.9851 80.5524 26.67 80.5524 26.67 80.3948C25.7248 79.9222 24.7795 79.4496 23.8342 78.9769C23.0465 78.5043 22.4163 78.0317 21.7861 77.7166C21.1559 77.4015 21.1559 76.6138 21.471 76.1411C21.7861 75.6685 22.4163 75.5109 23.0465 75.826C23.6767 76.1411 24.3068 76.6138 24.937 76.9289C25.8823 77.559 26.67 78.0317 27.4578 78.3468C28.0879 78.6618 28.403 79.292 28.0879 79.9222C27.9304 80.2373 27.4578 80.5524 26.9851 80.5524Z" fill="#5DC887"/>
<path fill-rule="evenodd" clip-rule="evenodd" d="M11.7033 67.3186C11.2306 67.3186 10.9155 67.1611 10.6004 66.846C10.1278 66.0583 9.65518 65.113 9.025 64.1677C8.70991 63.5376 8.23727 62.7498 7.92218 61.9621C7.60709 61.3319 7.92218 60.7017 8.39482 60.3867C9.025 60.2291 9.65518 60.3867 9.81272 61.0168C10.2854 61.647 10.6004 62.2772 10.9155 62.9074C11.5457 63.8526 12.0184 64.7979 12.491 65.4281C12.8061 66.0583 12.6485 66.6885 12.1759 67.0036C12.0184 67.3186 11.8608 67.3186 11.7033 67.3186Z" fill="#5DC887"/>
<path fill-rule="evenodd" clip-rule="evenodd" d="M4.92882 48.2555C4.29864 48.2555 3.826 47.7828 3.826 47.1527C3.66846 46.0498 3.66846 45.1046 3.66846 44.0018C3.66846 43.214 3.66846 42.4263 3.66846 41.6386C3.826 40.8509 4.29864 40.5358 4.92882 40.5358C5.559 40.5358 6.03163 41.1659 6.03163 41.7961V41.9537C5.87409 42.5839 5.87409 43.3716 5.87409 44.0018C5.87409 45.1046 6.03163 46.0498 6.03163 46.9951C6.18918 47.6253 5.71654 48.2555 5.08636 48.2555C4.92882 48.2555 4.92882 48.2555 4.92882 48.2555Z" fill="#5DC887"/>
<path fill-rule="evenodd" clip-rule="evenodd" d="M8.70992 28.405C8.55237 28.405 8.23728 28.405 8.23728 28.2475C7.6071 27.9324 7.29201 27.3022 7.6071 26.672C7.92219 25.7268 8.55237 24.939 9.02501 23.8362C9.49764 23.0485 9.97028 22.4183 10.2854 21.7881C10.6005 21.3155 11.3882 21.158 11.8608 21.6306C12.3335 21.9457 12.491 22.5759 12.1759 23.206C11.8608 23.6787 11.3882 24.3089 10.9155 25.0966C10.4429 26.0419 9.97028 26.8296 9.49764 27.6173C9.49764 28.0899 9.02501 28.405 8.70992 28.405Z" fill="#5DC887"/>
<path fill-rule="evenodd" clip-rule="evenodd" d="M21.7861 12.8079C21.471 12.8079 20.9984 12.6504 20.8409 12.3353C20.3682 11.8626 20.5258 11.2324 21.1559 10.7598C21.9437 10.2872 22.8889 9.657 23.6767 9.18436C24.4644 8.86927 25.0946 8.39664 25.8823 8.08155C26.5125 7.76646 27.1427 8.08155 27.4577 8.55418C27.6153 9.18436 27.4577 9.81454 26.8276 9.97209C26.1974 10.4447 25.4097 10.7598 24.7795 11.0749C23.9918 11.5475 23.0465 12.0202 22.2588 12.6504C22.2588 12.8079 21.9437 12.8079 21.7861 12.8079Z" fill="#5DC887"/></g>
<!-- <style>
	g {
	animation-name: spin; animation-duration: 5000ms; animation-iteration-count: infinite; animation-timing-function: linear;
	}
	@keyframes spin {from {transform:rotate(0deg);}to {transform:rotate(360deg);}}
</style> -->
</svg>
