<svg width="88" height="88" viewBox="0 0 88 88" fill="none" xmlns="http://www.w3.org/2000/svg">
<path d="M84.3333 29.0218V58.9782C84.3333 59.9504 83.9484 60.885 83.252 61.5814L61.5814 83.252C60.8849 83.9484 59.9504 84.3334 58.9782 84.3334H29.0218C28.0496 84.3334 27.1151 83.9484 26.4186 83.252L4.74805 61.5814C4.0704 60.9038 3.68458 59.9683 3.68458 58.997C3.70337 53.497 3.68458 34.5218 3.66667 29.003C3.66667 28.0318 4.0516 27.1151 4.74805 26.4186L26.4186 4.74807C27.1151 4.05162 28.0496 3.66669 29.0218 3.66669H58.9782C59.9504 3.66669 60.8849 4.05162 61.5814 4.74807L83.252 26.4186C83.9484 27.1151 84.3333 28.0497 84.3333 29.0218ZM47.2083 21.9633C47.2262 21.8353 47.2262 21.6885 47.2262 21.5596C47.2262 19.7997 45.8154 18.3334 44 18.3334C42.0566 18.3334 40.5536 20.0387 40.7917 21.9633L44 51.3334L47.2083 21.9633ZM45.8333 67.8334C45.8333 66.8254 45.008 66 44 66C42.992 66 42.1667 66.8254 42.1667 67.8334C42.1667 68.8413 42.992 69.6667 44 69.6667C45.008 69.6667 45.8333 68.8413 45.8333 67.8334Z" fill="#E35561"/>
<path d="M44 14.6667C42.0252 14.6667 40.1409 15.5153 38.8321 16.9968C37.5225 18.4784 36.9102 20.4523 37.1474 22.3608L40.3557 51.7308C40.5589 53.5901 42.1282 55 44 55C45.8718 55 47.4411 53.5901 47.6443 51.7308L50.8383 22.4709C50.8786 22.1817 50.8911 21.8514 50.8911 21.5596C50.8929 17.7595 47.8009 14.6667 44 14.6667Z" fill="white"/>
<path d="M44 62.3334C40.968 62.3334 38.5 64.8014 38.5 67.8334C38.5 70.8654 40.968 73.3334 44 73.3334C47.032 73.3334 49.5 70.8654 49.5 67.8334C49.5 64.8014 47.032 62.3334 44 62.3334Z" fill="white"/>
</svg>
