<svg width="104" height="26" viewBox="0 0 104 26" fill="none" xmlns="http://www.w3.org/2000/svg">
<path d="M9.96666 20L6.79866 15.488L5.83866 14.192L0.702656 7.304H4.83066L7.92666 11.672L8.95866 13.088L14.0227 20H9.96666ZM0.630656 20L5.71866 13.088L7.59066 15.32L4.66266 20H0.630656ZM8.83866 14.264L7.01466 12.056L9.72666 7.304H13.7107L8.83866 14.264ZM19.7382 20V6.44H14.8902V3.2H28.3782V6.44H23.3382V20H19.7382ZM29.4423 20V7.304H32.7303L32.8503 11.384L32.2743 10.52C32.4823 9.88 32.7943 9.296 33.2103 8.768C33.6423 8.24 34.1463 7.824 34.7223 7.52C35.3143 7.2 35.9303 7.04 36.5703 7.04C36.8583 7.04 37.1223 7.064 37.3623 7.112C37.6183 7.144 37.8343 7.2 38.0103 7.28L37.0983 11C36.9223 10.92 36.6903 10.848 36.4023 10.784C36.1303 10.704 35.8503 10.664 35.5623 10.664C35.1943 10.664 34.8423 10.736 34.5063 10.88C34.1863 11.008 33.8983 11.2 33.6423 11.456C33.4023 11.696 33.2103 11.984 33.0663 12.32C32.9383 12.656 32.8743 13.032 32.8743 13.448V20H29.4423ZM46.4587 20V12.056C46.4587 11.384 46.2507 10.872 45.8347 10.52C45.4347 10.152 44.8907 9.968 44.2027 9.968C43.5467 9.968 42.9627 10.096 42.4507 10.352C41.9387 10.608 41.4587 11.008 41.0107 11.552L38.9227 9.536C39.6907 8.736 40.5467 8.12 41.4907 7.688C42.4507 7.256 43.4907 7.04 44.6107 7.04C45.6347 7.04 46.5227 7.2 47.2747 7.52C48.0427 7.84 48.6347 8.32 49.0507 8.96C49.4667 9.6 49.6747 10.408 49.6747 11.384V20H46.4587ZM42.9787 20.24C42.1787 20.24 41.4507 20.08 40.7947 19.76C40.1547 19.44 39.6427 19 39.2587 18.44C38.8907 17.864 38.7067 17.192 38.7067 16.424C38.7067 15.768 38.8267 15.192 39.0667 14.696C39.3067 14.184 39.6587 13.768 40.1227 13.448C40.6027 13.112 41.1947 12.856 41.8987 12.68C42.6187 12.504 43.4507 12.416 44.3947 12.416H48.1387L47.9227 14.696H44.3467C43.9627 14.696 43.6187 14.728 43.3147 14.792C43.0267 14.856 42.7787 14.96 42.5707 15.104C42.3787 15.248 42.2267 15.416 42.1147 15.608C42.0187 15.8 41.9707 16.024 41.9707 16.28C41.9707 16.552 42.0427 16.792 42.1867 17C42.3307 17.208 42.5227 17.368 42.7627 17.48C43.0187 17.592 43.3067 17.648 43.6267 17.648C44.0907 17.648 44.5307 17.568 44.9467 17.408C45.3787 17.248 45.7627 17.024 46.0987 16.736C46.4347 16.448 46.6987 16.12 46.8907 15.752L47.5387 17.456C47.2027 18 46.7947 18.48 46.3147 18.896C45.8347 19.312 45.3147 19.64 44.7547 19.88C44.1947 20.12 43.6027 20.24 42.9787 20.24ZM57.7312 20.24C56.6272 20.24 55.6272 19.96 54.7312 19.4C53.8512 18.84 53.1552 18.064 52.6432 17.072C52.1472 16.064 51.8992 14.928 51.8992 13.664C51.8992 12.384 52.1472 11.248 52.6432 10.256C53.1552 9.264 53.8512 8.48 54.7312 7.904C55.6112 7.328 56.6112 7.04 57.7312 7.04C58.3232 7.04 58.8912 7.136 59.4352 7.328C59.9952 7.504 60.4912 7.752 60.9232 8.072C61.3552 8.392 61.7072 8.752 61.9792 9.152C62.2512 9.536 62.4112 9.936 62.4592 10.352L61.5952 10.52V2.24H64.9792V20H61.7632L61.6192 17.072L62.2912 17.168C62.2752 17.552 62.1392 17.928 61.8832 18.296C61.6272 18.664 61.2832 19 60.8512 19.304C60.4352 19.592 59.9552 19.824 59.4112 20C58.8832 20.16 58.3232 20.24 57.7312 20.24ZM58.4752 17.408C59.1312 17.408 59.6912 17.248 60.1552 16.928C60.6352 16.608 61.0112 16.168 61.2832 15.608C61.5552 15.048 61.6912 14.4 61.6912 13.664C61.6912 12.912 61.5552 12.256 61.2832 11.696C61.0112 11.12 60.6352 10.68 60.1552 10.376C59.6912 10.056 59.1312 9.896 58.4752 9.896C57.8512 9.896 57.2992 10.056 56.8192 10.376C56.3392 10.68 55.9632 11.12 55.6912 11.696C55.4352 12.256 55.3072 12.912 55.3072 13.664C55.3072 14.4 55.4352 15.048 55.6912 15.608C55.9632 16.168 56.3392 16.608 56.8192 16.928C57.2992 17.248 57.8512 17.408 58.4752 17.408ZM68.5662 20V7.304H71.9742V20H68.5662ZM70.2702 4.688C69.5982 4.688 69.0782 4.528 68.7102 4.208C68.3422 3.888 68.1582 3.432 68.1582 2.84C68.1582 2.296 68.3422 1.856 68.7102 1.52C69.0942 1.168 69.6142 0.991999 70.2702 0.991999C70.9102 0.991999 71.4142 1.152 71.7822 1.472C72.1502 1.792 72.3342 2.248 72.3342 2.84C72.3342 3.4 72.1502 3.848 71.7822 4.184C71.4142 4.52 70.9102 4.688 70.2702 4.688ZM75.6376 20V7.304H78.9256L79.0216 9.896L78.3496 10.184C78.5096 9.608 78.8216 9.088 79.2856 8.624C79.7496 8.144 80.3016 7.76 80.9416 7.472C81.5816 7.184 82.2456 7.04 82.9336 7.04C83.8936 7.04 84.6936 7.232 85.3336 7.616C85.9896 8 86.4776 8.584 86.7976 9.368C87.1336 10.136 87.3016 11.096 87.3016 12.248V20H83.8936V12.488C83.8936 11.912 83.8136 11.432 83.6536 11.048C83.4936 10.664 83.2536 10.384 82.9336 10.208C82.6136 10.032 82.2056 9.952 81.7096 9.968C81.3256 9.968 80.9736 10.032 80.6536 10.16C80.3336 10.272 80.0456 10.44 79.7896 10.664C79.5496 10.888 79.3656 11.144 79.2376 11.432C79.1096 11.72 79.0456 12.04 79.0456 12.392V20H77.3416C76.9896 20 76.6696 20 76.3816 20C76.0936 20 75.8456 20 75.6376 20ZM96.3513 25.52C95.3593 25.52 94.3673 25.376 93.3753 25.088C92.3993 24.8 91.6073 24.416 90.9993 23.936L92.1993 21.488C92.7113 21.84 93.2953 22.12 93.9513 22.328C94.6233 22.536 95.3113 22.64 96.0153 22.64C96.8633 22.64 97.5513 22.512 98.0793 22.256C98.6233 22 99.0233 21.616 99.2793 21.104C99.5513 20.608 99.6873 19.976 99.6873 19.208V17L100.263 17.144C100.167 17.64 99.8953 18.112 99.4473 18.56C99.0153 18.992 98.4793 19.344 97.8393 19.616C97.1993 19.888 96.5273 20.024 95.8233 20.024C94.6553 20.024 93.6073 19.752 92.6793 19.208C91.7673 18.648 91.0473 17.888 90.5193 16.928C89.9913 15.968 89.7273 14.864 89.7273 13.616C89.7273 12.336 89.9913 11.2 90.5193 10.208C91.0473 9.216 91.7593 8.44 92.6553 7.88C93.5673 7.32 94.5913 7.04 95.7273 7.04C96.2073 7.04 96.6633 7.096 97.0953 7.208C97.5433 7.32 97.9513 7.48 98.3193 7.688C98.7033 7.88 99.0473 8.096 99.3513 8.336C99.6553 8.576 99.9033 8.84 100.095 9.128C100.287 9.416 100.407 9.704 100.455 9.992L99.7353 10.208L99.8313 7.304H103.119V19.04C103.119 20.064 102.959 20.976 102.639 21.776C102.335 22.592 101.887 23.272 101.295 23.816C100.719 24.376 100.015 24.8 99.1833 25.088C98.3513 25.376 97.4073 25.52 96.3513 25.52ZM96.4473 17.264C97.1193 17.264 97.7033 17.112 98.1993 16.808C98.7113 16.504 99.1033 16.08 99.3753 15.536C99.6633 14.992 99.8073 14.36 99.8073 13.64C99.8073 12.904 99.6633 12.264 99.3753 11.72C99.1033 11.176 98.7113 10.752 98.1993 10.448C97.7033 10.128 97.1193 9.968 96.4473 9.968C95.7913 9.968 95.2153 10.128 94.7193 10.448C94.2233 10.752 93.8313 11.176 93.5433 11.72C93.2713 12.264 93.1353 12.896 93.1353 13.616C93.1353 14.336 93.2713 14.976 93.5433 15.536C93.8313 16.08 94.2233 16.504 94.7193 16.808C95.2153 17.112 95.7913 17.264 96.4473 17.264Z" fill="white"/>
</svg>
