<svg width="105" height="115" viewBox="0 0 105 115" fill="none" xmlns="http://www.w3.org/2000/svg">
<g filter="url(#filter0_d_258_2332)">
<path d="M36.6821 17.011L28.6821 31.011H44.6821L36.6821 17.011Z" fill="#FF9701"/>
<path d="M28.5912 31.011L20.5003 45.011H36.6821L28.5912 31.011Z" fill="#FFA601"/>
<path d="M76.5 31.011L68.5 45.011H84.5L76.5 31.011Z" fill="#FFA601"/>
<path d="M52.3179 45.011L44.3179 59.011H60.3179L52.3179 45.011Z" fill="#FFBD00"/>
<path d="M52.3179 72.8291L44.3179 58.8291H60.3179L52.3179 72.8291Z" fill="#FFC300"/>
<path d="M36.6821 72.8291L28.6821 58.8291H44.6821L36.6821 72.8291Z" fill="#FFC300"/>
<path d="M44.5 58.8291L36.5 72.8291H52.5L44.5 58.8291Z" fill="#FFD501"/>
<path d="M60.3181 58.8291L52.3181 72.8291H68.3181L60.3181 58.8291Z" fill="#FFD501"/>
<path d="M52.3179 17.011L44.3179 31.011H60.3179L52.3179 17.011Z" fill="#FF9701"/>
<path d="M44.5 31.011L36.5 17.011H52.5L44.5 31.011Z" fill="#FF8A01"/>
<path d="M28.5912 58.8291L20.5003 45.0109H36.6821L28.5912 58.8291Z" fill="#FFBD00"/>
<path d="M76.5 58.8291L68.5 45.0109H84.5L76.5 58.8291Z" fill="#FFBD00"/>
<path d="M68.2272 72.8291L60.1363 58.8291H76.3181L68.2272 72.8291Z" fill="#FFC300"/>
<path d="M52.3179 45.011L44.3179 31.011H60.3179L52.3179 45.011Z" fill="#FFA601"/>
<path d="M68.2272 17.011L60.1363 31.011H76.3181L68.2272 17.011Z" fill="#FF9701"/>
<path d="M60.3181 31.011L52.3181 17.011H68.3181L60.3181 31.011Z" fill="#FF8A01"/>
</g>
<path d="M9.96666 109L6.79866 104.488L5.83866 103.192L0.702656 96.304H4.83066L7.92666 100.672L8.95866 102.088L14.0227 109H9.96666ZM0.630656 109L5.71866 102.088L7.59066 104.32L4.66266 109H0.630656ZM8.83866 103.264L7.01466 101.056L9.72666 96.304H13.7107L8.83866 103.264ZM19.7382 109V95.44H14.8902V92.2H28.3782V95.44H23.3382V109H19.7382ZM29.4423 109V96.304H32.7303L32.8503 100.384L32.2743 99.52C32.4823 98.88 32.7943 98.296 33.2103 97.768C33.6423 97.24 34.1463 96.824 34.7223 96.52C35.3143 96.2 35.9303 96.04 36.5703 96.04C36.8583 96.04 37.1223 96.064 37.3623 96.112C37.6183 96.144 37.8343 96.2 38.0103 96.28L37.0983 100C36.9223 99.92 36.6903 99.848 36.4023 99.784C36.1303 99.704 35.8503 99.664 35.5623 99.664C35.1943 99.664 34.8423 99.736 34.5063 99.88C34.1863 100.008 33.8983 100.2 33.6423 100.456C33.4023 100.696 33.2103 100.984 33.0663 101.32C32.9383 101.656 32.8743 102.032 32.8743 102.448V109H29.4423ZM46.4587 109V101.056C46.4587 100.384 46.2507 99.872 45.8347 99.52C45.4347 99.152 44.8907 98.968 44.2027 98.968C43.5467 98.968 42.9627 99.096 42.4507 99.352C41.9387 99.608 41.4587 100.008 41.0107 100.552L38.9227 98.536C39.6907 97.736 40.5467 97.12 41.4907 96.688C42.4507 96.256 43.4907 96.04 44.6107 96.04C45.6347 96.04 46.5227 96.2 47.2747 96.52C48.0427 96.84 48.6347 97.32 49.0507 97.96C49.4667 98.6 49.6747 99.408 49.6747 100.384V109H46.4587ZM42.9787 109.24C42.1787 109.24 41.4507 109.08 40.7947 108.76C40.1547 108.44 39.6427 108 39.2587 107.44C38.8907 106.864 38.7067 106.192 38.7067 105.424C38.7067 104.768 38.8267 104.192 39.0667 103.696C39.3067 103.184 39.6587 102.768 40.1227 102.448C40.6027 102.112 41.1947 101.856 41.8987 101.68C42.6187 101.504 43.4507 101.416 44.3947 101.416H48.1387L47.9227 103.696H44.3467C43.9627 103.696 43.6187 103.728 43.3147 103.792C43.0267 103.856 42.7787 103.96 42.5707 104.104C42.3787 104.248 42.2267 104.416 42.1147 104.608C42.0187 104.8 41.9707 105.024 41.9707 105.28C41.9707 105.552 42.0427 105.792 42.1867 106C42.3307 106.208 42.5227 106.368 42.7627 106.48C43.0187 106.592 43.3067 106.648 43.6267 106.648C44.0907 106.648 44.5307 106.568 44.9467 106.408C45.3787 106.248 45.7627 106.024 46.0987 105.736C46.4347 105.448 46.6987 105.12 46.8907 104.752L47.5387 106.456C47.2027 107 46.7947 107.48 46.3147 107.896C45.8347 108.312 45.3147 108.64 44.7547 108.88C44.1947 109.12 43.6027 109.24 42.9787 109.24ZM57.7312 109.24C56.6272 109.24 55.6272 108.96 54.7312 108.4C53.8512 107.84 53.1552 107.064 52.6432 106.072C52.1472 105.064 51.8992 103.928 51.8992 102.664C51.8992 101.384 52.1472 100.248 52.6432 99.256C53.1552 98.264 53.8512 97.48 54.7312 96.904C55.6112 96.328 56.6112 96.04 57.7312 96.04C58.3232 96.04 58.8912 96.136 59.4352 96.328C59.9952 96.504 60.4912 96.752 60.9232 97.072C61.3552 97.392 61.7072 97.752 61.9792 98.152C62.2512 98.536 62.4112 98.936 62.4592 99.352L61.5952 99.52V91.24H64.9792V109H61.7632L61.6192 106.072L62.2912 106.168C62.2752 106.552 62.1392 106.928 61.8832 107.296C61.6272 107.664 61.2832 108 60.8512 108.304C60.4352 108.592 59.9552 108.824 59.4112 109C58.8832 109.16 58.3232 109.24 57.7312 109.24ZM58.4752 106.408C59.1312 106.408 59.6912 106.248 60.1552 105.928C60.6352 105.608 61.0112 105.168 61.2832 104.608C61.5552 104.048 61.6912 103.4 61.6912 102.664C61.6912 101.912 61.5552 101.256 61.2832 100.696C61.0112 100.12 60.6352 99.68 60.1552 99.376C59.6912 99.056 59.1312 98.896 58.4752 98.896C57.8512 98.896 57.2992 99.056 56.8192 99.376C56.3392 99.68 55.9632 100.12 55.6912 100.696C55.4352 101.256 55.3072 101.912 55.3072 102.664C55.3072 103.4 55.4352 104.048 55.6912 104.608C55.9632 105.168 56.3392 105.608 56.8192 105.928C57.2992 106.248 57.8512 106.408 58.4752 106.408ZM68.5662 109V96.304H71.9742V109H68.5662ZM70.2702 93.688C69.5982 93.688 69.0782 93.528 68.7102 93.208C68.3422 92.888 68.1582 92.432 68.1582 91.84C68.1582 91.296 68.3422 90.856 68.7102 90.52C69.0942 90.168 69.6142 89.992 70.2702 89.992C70.9102 89.992 71.4142 90.152 71.7822 90.472C72.1502 90.792 72.3342 91.248 72.3342 91.84C72.3342 92.4 72.1502 92.848 71.7822 93.184C71.4142 93.52 70.9102 93.688 70.2702 93.688ZM75.6376 109V96.304H78.9256L79.0216 98.896L78.3496 99.184C78.5096 98.608 78.8216 98.088 79.2856 97.624C79.7496 97.144 80.3016 96.76 80.9416 96.472C81.5816 96.184 82.2456 96.04 82.9336 96.04C83.8936 96.04 84.6936 96.232 85.3336 96.616C85.9896 97 86.4776 97.584 86.7976 98.368C87.1336 99.136 87.3016 100.096 87.3016 101.248V109H83.8936V101.488C83.8936 100.912 83.8136 100.432 83.6536 100.048C83.4936 99.664 83.2536 99.384 82.9336 99.208C82.6136 99.032 82.2056 98.952 81.7096 98.968C81.3256 98.968 80.9736 99.032 80.6536 99.16C80.3336 99.272 80.0456 99.44 79.7896 99.664C79.5496 99.888 79.3656 100.144 79.2376 100.432C79.1096 100.72 79.0456 101.04 79.0456 101.392V109H77.3416C76.9896 109 76.6696 109 76.3816 109C76.0936 109 75.8456 109 75.6376 109ZM96.3513 114.52C95.3593 114.52 94.3673 114.376 93.3753 114.088C92.3993 113.8 91.6073 113.416 90.9993 112.936L92.1993 110.488C92.7113 110.84 93.2953 111.12 93.9513 111.328C94.6233 111.536 95.3113 111.64 96.0153 111.64C96.8633 111.64 97.5513 111.512 98.0793 111.256C98.6233 111 99.0233 110.616 99.2793 110.104C99.5513 109.608 99.6873 108.976 99.6873 108.208V106L100.263 106.144C100.167 106.64 99.8953 107.112 99.4473 107.56C99.0153 107.992 98.4793 108.344 97.8393 108.616C97.1993 108.888 96.5273 109.024 95.8233 109.024C94.6553 109.024 93.6073 108.752 92.6793 108.208C91.7673 107.648 91.0473 106.888 90.5193 105.928C89.9913 104.968 89.7273 103.864 89.7273 102.616C89.7273 101.336 89.9913 100.2 90.5193 99.208C91.0473 98.216 91.7593 97.44 92.6553 96.88C93.5673 96.32 94.5913 96.04 95.7273 96.04C96.2073 96.04 96.6633 96.096 97.0953 96.208C97.5433 96.32 97.9513 96.48 98.3193 96.688C98.7033 96.88 99.0473 97.096 99.3513 97.336C99.6553 97.576 99.9033 97.84 100.095 98.128C100.287 98.416 100.407 98.704 100.455 98.992L99.7353 99.208L99.8313 96.304H103.119V108.04C103.119 109.064 102.959 109.976 102.639 110.776C102.335 111.592 101.887 112.272 101.295 112.816C100.719 113.376 100.015 113.8 99.1833 114.088C98.3513 114.376 97.4073 114.52 96.3513 114.52ZM96.4473 106.264C97.1193 106.264 97.7033 106.112 98.1993 105.808C98.7113 105.504 99.1033 105.08 99.3753 104.536C99.6633 103.992 99.8073 103.36 99.8073 102.64C99.8073 101.904 99.6633 101.264 99.3753 100.72C99.1033 100.176 98.7113 99.752 98.1993 99.448C97.7033 99.128 97.1193 98.968 96.4473 98.968C95.7913 98.968 95.2153 99.128 94.7193 99.448C94.2233 99.752 93.8313 100.176 93.5433 100.72C93.2713 101.264 93.1353 101.896 93.1353 102.616C93.1353 103.336 93.2713 103.976 93.5433 104.536C93.8313 105.08 94.2233 105.504 94.7193 105.808C95.2153 106.112 95.7913 106.264 96.4473 106.264Z" fill="white"/>
<defs>
<filter id="filter0_d_258_2332" x="6.5" y="-4" width="90" height="90" filterUnits="userSpaceOnUse" color-interpolation-filters="sRGB">
<feFlood flood-opacity="0" result="BackgroundImageFix"/>
<feColorMatrix in="SourceAlpha" type="matrix" values="0 0 0 0 0 0 0 0 0 0 0 0 0 0 0 0 0 0 127 0" result="hardAlpha"/>
<feOffset dx="-1" dy="-4"/>
<feGaussianBlur stdDeviation="6.5"/>
<feComposite in2="hardAlpha" operator="out"/>
<feColorMatrix type="matrix" values="0 0 0 0 0 0 0 0 0 0 0 0 0 0 0 0 0 0 0.05 0"/>
<feBlend mode="normal" in2="BackgroundImageFix" result="effect1_dropShadow_258_2332"/>
<feBlend mode="normal" in="SourceGraphic" in2="effect1_dropShadow_258_2332" result="shape"/>
</filter>
</defs>
</svg>
