<svg width="24" height="24" viewBox="0 0 24 24" fill="none" xmlns="http://www.w3.org/2000/svg">
<path fill-rule="evenodd" clip-rule="evenodd" d="M20.1937 9.17166C20.1156 8.90976 20.024 8.65157 19.9191 8.39814C19.5182 7.43031 18.9306 6.55092 18.1899 5.81018C17.4491 5.06944 16.5697 4.48185 15.6019 4.08096C15.3484 3.97599 15.0902 3.88435 14.8283 3.80627V9.17166H20.1937ZM21.9942 9.97205C22.0557 10.5222 21.601 10.9724 21.0474 10.9724H14.0298C13.4762 10.9724 13.0273 10.5236 13.0273 9.96994V2.95243C13.0273 2.39877 13.4776 1.94418 14.0278 2.00557C14.8692 2.09944 15.6949 2.31147 16.4802 2.63674C17.5748 3.09016 18.5694 3.75476 19.4073 4.59257C20.2451 5.43039 20.9096 6.42502 21.363 7.51969C21.6884 8.30494 21.9004 9.13062 21.9942 9.97205ZM14.8283 20.1433C15.0902 20.0652 15.3484 19.9736 15.6019 19.8687C16.5697 19.4678 17.4491 18.8802 18.1899 18.1393C18.9306 17.3986 19.5182 16.5193 19.9191 15.5515C20.024 15.298 20.1156 15.0398 20.1937 14.7779H14.8283V20.1433ZM14.0278 21.9443C13.4776 22.0056 13.0273 21.5511 13.0273 20.9974V13.9799C13.0273 13.4262 13.4762 12.9774 14.0298 12.9774H21.0474C21.601 12.9774 22.0557 13.4276 21.9942 13.9779C21.9004 14.8192 21.6884 15.645 21.363 16.4302C20.9096 17.5249 20.2451 18.5194 19.4073 19.3573C18.5694 20.1951 17.5748 20.8597 16.4802 21.3131C15.6949 21.6384 14.8692 21.8505 14.0278 21.9443ZM6.02843 6.68403C6.92647 5.79752 8.02671 5.1564 9.22213 4.80452V19.1443C8.0267 18.7925 6.92647 18.1514 6.02843 17.2648C4.60711 15.8618 3.80862 13.9587 3.80862 11.9744C3.80862 9.99017 4.60711 8.08713 6.02843 6.68403ZM11.0225 3.95487C11.0225 3.40119 10.5723 2.94659 10.022 3.00797C7.99719 3.23385 6.09717 4.14046 4.64264 5.59499C2.95058 7.28705 2 9.58197 2 11.9749C2 14.3678 2.95058 16.6627 4.64264 18.3548C6.09717 19.8094 7.99719 20.7159 10.022 20.9418C10.5723 21.0031 11.0225 20.5486 11.0225 19.9949V3.95487Z" fill="#1B1C20"/>
</svg>
