<svg width="216" height="300" viewBox="0 0 216 300" fill="none" xmlns="http://www.w3.org/2000/svg">
<g filter="url(#filter0_i_19_2)">
<path d="M208 84H8C3.58172 84 0 87.5817 0 92V292C0 296.418 3.58172 300 8 300H208C212.418 300 216 296.418 216 292V92C216 87.5817 212.418 84 208 84Z" fill="#0C0E11"/>
<path d="M208 84.5H8C3.85786 84.5 0.5 87.8579 0.5 92V292C0.5 296.142 3.85786 299.5 8 299.5H208C212.142 299.5 215.5 296.142 215.5 292V92C215.5 87.8579 212.142 84.5 208 84.5Z" stroke="#42474C"/>
</g>
<path d="M34 240C34 235.582 37.5817 232 42 232H174C178.418 232 182 235.582 182 240V272C182 276.418 178.418 280 174 280H42C37.5817 280 34 276.418 34 272V240Z" fill="url(#paint0_linear_19_2)"/>
<path d="M66.9432 254.08C66.8485 253.773 66.7178 253.498 66.5511 253.256C66.3883 253.009 66.1913 252.799 65.9602 252.625C65.733 252.451 65.4716 252.32 65.1761 252.233C64.8807 252.142 64.5587 252.097 64.2102 252.097C63.5852 252.097 63.0284 252.254 62.5398 252.568C62.0511 252.883 61.6667 253.345 61.3864 253.955C61.1098 254.561 60.9716 255.299 60.9716 256.17C60.9716 257.049 61.1098 257.794 61.3864 258.403C61.6629 259.013 62.0473 259.477 62.5398 259.795C63.0322 260.11 63.6042 260.267 64.2557 260.267C64.8466 260.267 65.358 260.153 65.7898 259.926C66.2254 259.699 66.5606 259.377 66.7955 258.96C67.0303 258.54 67.1477 258.047 67.1477 257.483L67.625 257.557H64.4659V255.909H69.1875V257.307C69.1875 258.303 68.9754 259.165 68.5511 259.892C68.1269 260.619 67.5436 261.18 66.8011 261.574C66.0587 261.964 65.2064 262.159 64.2443 262.159C63.1723 262.159 62.2311 261.919 61.4205 261.438C60.6136 260.953 59.983 260.265 59.5284 259.375C59.0777 258.481 58.8523 257.42 58.8523 256.193C58.8523 255.254 58.9848 254.415 59.25 253.676C59.5189 252.938 59.8939 252.311 60.375 251.795C60.8561 251.277 61.4205 250.883 62.0682 250.614C62.7159 250.341 63.4205 250.205 64.1818 250.205C64.8258 250.205 65.4261 250.299 65.983 250.489C66.5398 250.674 67.0341 250.939 67.4659 251.284C67.9015 251.629 68.2595 252.038 68.5398 252.511C68.8201 252.985 69.0038 253.508 69.0909 254.08H66.9432ZM74.9986 262.17C74.1236 262.17 73.3679 261.989 72.7315 261.625C72.099 261.258 71.6122 260.739 71.2713 260.068C70.9304 259.394 70.7599 258.6 70.7599 257.688C70.7599 256.79 70.9304 256.002 71.2713 255.324C71.616 254.642 72.0971 254.112 72.7145 253.733C73.3319 253.35 74.0573 253.159 74.8906 253.159C75.4285 253.159 75.9361 253.246 76.4134 253.42C76.8944 253.591 77.3187 253.856 77.6861 254.216C78.0573 254.576 78.349 255.034 78.5611 255.591C78.7732 256.144 78.8793 256.803 78.8793 257.568V258.199H71.7259V256.812H76.9077C76.9039 256.419 76.8187 256.068 76.652 255.761C76.4853 255.451 76.2524 255.206 75.9531 255.028C75.6577 254.85 75.313 254.761 74.919 254.761C74.4986 254.761 74.1293 254.864 73.8111 255.068C73.4929 255.269 73.2448 255.534 73.0668 255.864C72.8925 256.189 72.8035 256.547 72.7997 256.938V258.148C72.7997 258.655 72.8925 259.091 73.0781 259.455C73.2637 259.814 73.5232 260.091 73.8565 260.284C74.1899 260.473 74.58 260.568 75.027 260.568C75.3262 260.568 75.5971 260.527 75.8395 260.443C76.0819 260.356 76.2921 260.229 76.4702 260.062C76.6482 259.896 76.7827 259.689 76.8736 259.443L78.794 259.659C78.6728 260.167 78.4418 260.61 78.1009 260.989C77.7637 261.364 77.3319 261.655 76.8054 261.864C76.2789 262.068 75.6766 262.17 74.9986 262.17ZM84.977 253.273V254.864H79.9602V253.273H84.977ZM81.199 251.182H83.256V259.375C83.256 259.652 83.297 259.864 83.381 260.011C83.468 260.155 83.581 260.254 83.722 260.307C83.862 260.36 84.017 260.386 84.188 260.386C84.316 260.386 84.434 260.377 84.54 260.358C84.65 260.339 84.733 260.322 84.79 260.307L85.136 261.915C85.027 261.953 84.869 261.994 84.665 262.04C84.464 262.085 84.218 262.112 83.926 262.119C83.411 262.134 82.947 262.057 82.534 261.886C82.121 261.712 81.794 261.443 81.551 261.08C81.313 260.716 81.195 260.261 81.199 259.716V251.182ZM90.757 262V250.364H95.121C96.015 250.364 96.765 250.53 97.371 250.864C97.981 251.197 98.441 251.655 98.751 252.239C99.066 252.818 99.223 253.477 99.223 254.216C99.223 254.962 99.066 255.625 98.751 256.205C98.437 256.784 97.973 257.241 97.359 257.574C96.746 257.903 95.99 258.068 95.092 258.068H92.2V256.335H94.808C95.331 256.335 95.759 256.244 96.092 256.062C96.426 255.881 96.672 255.631 96.831 255.312C96.994 254.994 97.075 254.629 97.075 254.216C97.075 253.803 96.994 253.439 96.831 253.125C96.672 252.811 96.424 252.566 96.087 252.392C95.753 252.214 95.323 252.125 94.797 252.125H92.865V262H90.757ZM100.963 262V253.273H102.957V254.727H103.048C103.207 254.223 103.48 253.835 103.866 253.562C104.257 253.286 104.702 253.148 105.202 253.148C105.315 253.148 105.442 253.153 105.582 253.165C105.726 253.172 105.846 253.186 105.94 253.205V255.097C105.853 255.066 105.715 255.04 105.526 255.017C105.34 254.991 105.16 254.977 104.986 254.977C104.611 254.977 104.274 255.059 103.974 255.222C103.679 255.381 103.446 255.602 103.276 255.886C103.105 256.17 103.02 256.498 103.02 256.869V262H100.963ZM110.754 262.17C109.902 262.17 109.163 261.983 108.538 261.608C107.913 261.233 107.429 260.708 107.084 260.034C106.743 259.36 106.572 258.572 106.572 257.67C106.572 256.769 106.743 255.979 107.084 255.301C107.429 254.623 107.913 254.097 108.538 253.722C109.163 253.347 109.902 253.159 110.754 253.159C111.607 253.159 112.345 253.347 112.97 253.722C113.595 254.097 114.078 254.623 114.419 255.301C114.764 255.979 114.936 256.769 114.936 257.67C114.936 258.572 114.764 259.36 114.419 260.034C114.078 260.708 113.595 261.233 112.97 261.608C112.345 261.983 111.607 262.17 110.754 262.17ZM110.766 260.523C111.228 260.523 111.614 260.396 111.925 260.142C112.235 259.884 112.466 259.54 112.618 259.108C112.773 258.676 112.851 258.195 112.851 257.665C112.851 257.131 112.773 256.648 112.618 256.216C112.466 255.78 112.235 255.434 111.925 255.176C111.614 254.919 111.228 254.79 110.766 254.79C110.292 254.79 109.898 254.919 109.584 255.176C109.273 255.434 109.04 255.78 108.885 256.216C108.733 256.648 108.658 257.131 108.658 257.665C108.658 258.195 108.733 258.676 108.885 259.108C109.04 259.54 109.273 259.884 109.584 260.142C109.898 260.396 110.292 260.523 110.766 260.523ZM122.707 256.886V262H120.651V253.273H122.616V254.756H122.719C122.92 254.267 123.24 253.879 123.679 253.591C124.122 253.303 124.67 253.159 125.321 253.159C125.923 253.159 126.448 253.288 126.895 253.545C127.346 253.803 127.694 254.176 127.94 254.665C128.19 255.153 128.313 255.746 128.31 256.443V262H126.253V256.761C126.253 256.178 126.101 255.722 125.798 255.392C125.499 255.062 125.084 254.898 124.554 254.898C124.194 254.898 123.874 254.977 123.594 255.136C123.317 255.292 123.099 255.517 122.94 255.812C122.785 256.108 122.707 256.466 122.707 256.886ZM134.207 262.17C133.355 262.17 132.616 261.983 131.991 261.608C131.366 261.233 130.882 260.708 130.537 260.034C130.196 259.36 130.026 258.572 130.026 257.67C130.026 256.769 130.196 255.979 130.537 255.301C130.882 254.623 131.366 254.097 131.991 253.722C132.616 253.347 133.355 253.159 134.207 253.159C135.06 253.159 135.798 253.347 136.423 253.722C137.048 254.097 137.531 254.623 137.872 255.301C138.217 255.979 138.389 256.769 138.389 257.67C138.389 258.572 138.217 259.36 137.872 260.034C137.531 260.708 137.048 261.233 136.423 261.608C135.798 261.983 135.06 262.17 134.207 262.17ZM134.219 260.523C134.681 260.523 135.067 260.396 135.378 260.142C135.688 259.884 135.92 259.54 136.071 259.108C136.226 258.676 136.304 258.195 136.304 257.665C136.304 257.131 136.226 256.648 136.071 256.216C135.92 255.78 135.688 255.434 135.378 255.176C135.067 254.919 134.681 254.79 134.219 254.79C133.745 254.79 133.351 254.919 133.037 255.176C132.726 255.434 132.493 255.78 132.338 256.216C132.187 256.648 132.111 257.131 132.111 257.665C132.111 258.195 132.187 258.676 132.338 259.108C132.493 259.54 132.726 259.884 133.037 260.142C133.351 260.396 133.745 260.523 134.219 260.523ZM141.686 262L139.22 253.273H141.317L142.851 259.409H142.93L144.499 253.273H146.572L148.141 259.375H148.226L149.737 253.273H151.839L149.368 262H147.226L145.589 256.102H145.47L143.834 262H141.686ZM155.793 250.364L155.605 258.58H153.776L153.594 250.364H155.793ZM154.69 262.125C154.346 262.125 154.05 262.004 153.804 261.761C153.562 261.519 153.44 261.223 153.44 260.875C153.44 260.534 153.562 260.242 153.804 260C154.05 259.758 154.346 259.636 154.69 259.636C155.027 259.636 155.319 259.758 155.565 260C155.815 260.242 155.94 260.534 155.94 260.875C155.94 261.106 155.882 261.316 155.764 261.506C155.651 261.695 155.499 261.847 155.31 261.96C155.124 262.07 154.918 262.125 154.69 262.125Z" fill="#1B1C20"/>
<path d="M143.88 21.1217L145.661 18.5689L141.096 15.8485C140.911 15.7156 140.715 15.5984 140.51 15.498L140.412 15.437C138.89 14.7436 137.026 14.9036 134.98 16.1229C133.738 16.8975 132.626 17.8645 131.686 18.9881L128.643 17.1744C128.452 17.044 128.254 16.9244 128.05 16.8163C126.08 15.8028 123.569 15.9781 120.838 17.5783C114.646 21.2741 109.701 31.0432 109.8 39.4026C109.808 40.0983 109.856 40.7929 109.945 41.4829C106.305 45.1258 104.226 50.046 104.148 55.1993C104.148 58.095 105.084 60.1906 106.514 61.2498C106.715 61.3981 106.929 61.5281 107.153 61.6384L111.664 64.3284L115.833 59.7562L115.582 58.9942L141.347 44.0891C145.851 41.3991 149.441 34.3047 149.365 28.2314C149.327 23.4916 147.037 20.7864 143.88 21.1217Z" fill="#FFE6A7"/>
<path d="M131.686 18.9959C132.626 17.8723 133.738 16.9053 134.98 16.1307C137.026 14.9114 138.905 14.7514 140.411 15.4449L140.51 15.5058C140.715 15.6062 140.911 15.7234 141.096 15.8563L145.66 18.5768L144.23 20.6342L136.151 23.0117L131.686 18.9959Z" fill="#FFE092"/>
<path d="M107.169 61.6461C106.945 61.5385 106.731 61.411 106.53 61.2651C105.1 60.2059 104.202 58.1027 104.164 55.2147C104.242 50.0613 106.321 45.1411 109.961 41.4983L115.164 44.615L114.472 61.2728L111.68 64.3209L107.169 61.6461Z" fill="url(#paint1_linear_19_2)"/>
<path d="M148.955 24.2155C148.301 18.8281 144.604 16.5953 140.184 19.2167C138.615 20.2027 137.247 21.4774 136.152 22.9734C134.235 19.1633 130.416 18.0889 126.057 20.6874C119.888 24.406 114.92 34.1828 115.019 42.5041C115.027 43.1997 115.075 43.8944 115.164 44.5844C111.524 48.2272 109.445 53.1474 109.367 58.3008C109.436 64.0921 112.973 66.683 117.271 64.1455L146.566 47.1981C151.07 44.5158 154.661 37.4138 154.584 31.3405C154.531 26.5397 152.181 23.8193 148.955 24.2155Z" fill="#FFD56A"/>
<g style="mix-blend-mode:overlay">
<path style="mix-blend-mode:overlay" d="M107.169 61.6461C106.943 61.5385 106.726 61.411 106.522 61.2651C105.1 60.2059 104.24 58.1027 104.164 55.2147C104.24 50.0624 106.316 45.1424 109.953 41.4983L115.156 44.615L114.464 61.2728L111.68 64.3209L107.169 61.6461Z" fill="url(#paint2_linear_19_2)"/>
</g>
<path d="M113.775 88.5204V82.5339H107.937L77.1855 64.673C72.6093 62.02 64.5911 62.3356 59.2851 65.3831L30.9601 81.7055L30.2894 82.1197H26.5713V87.6624C26.5713 89.3094 27.6167 90.8776 29.6582 92.0611L63.1907 111.48C67.7668 114.133 75.785 113.818 81.091 110.77L109.386 94.4576C112.345 92.7613 113.825 90.5817 113.775 88.5401V88.5204Z" fill="#9FD7F2"/>
<path d="M63.1612 105.918L29.6288 86.4986C25.0428 83.8357 25.6246 79.2102 30.9306 76.1627L59.2557 59.8699C64.5617 56.8224 72.5799 56.5068 77.1561 59.1598L110.688 78.579C115.275 81.2419 114.693 85.8674 109.387 88.9149L81.062 105.208C75.7556 108.255 67.7374 108.571 63.1612 105.918Z" fill="#CFEEFD"/>
<path d="M86.506 80.2198C83.903 75.7423 76.9892 72.5271 68.8329 72.5271C60.6767 72.5271 53.7631 75.7423 51.1594 80.2198H50.0449V84.1648C50.0449 90.5853 58.4576 95.7828 68.7836 95.7828C79.1096 95.7828 87.572 90.5853 87.572 84.1648V80.2198H86.506Z" fill="#DD7105"/>
<path d="M68.8329 91.838C79.2093 91.838 87.621 86.6365 87.621 80.22C87.621 73.8036 79.2093 68.6021 68.8329 68.6021C58.4566 68.6021 50.0449 73.8036 50.0449 80.22C50.0449 86.6365 58.4566 91.838 68.8329 91.838Z" fill="#FFD264"/>
<path d="M68.8329 88.4353C77.1231 88.4353 83.844 84.5231 83.844 79.6971C83.844 74.8712 77.1231 70.959 68.8329 70.959C60.5428 70.959 53.8223 74.8712 53.8223 79.6971C53.8223 84.5231 60.5428 88.4353 68.8329 88.4353Z" fill="#FFE193"/>
<path d="M68.833 70.959C60.5485 70.959 53.8223 74.904 53.8223 79.6971C53.8315 80.1267 53.8911 80.5537 53.9998 80.9694C55.0649 76.7482 61.2882 73.5035 68.7935 73.5035C76.2988 73.5035 82.601 76.7482 83.587 80.9694C83.696 80.5537 83.756 80.1267 83.765 79.6971C83.834 74.8744 77.1174 70.959 68.833 70.959Z" fill="#FFC30D"/>
<path d="M79.09 83.8987L78.4292 83.514C78.6272 83.3824 78.7942 83.2093 78.9185 83.0066C79.0429 82.8039 79.1216 82.5766 79.1491 82.3404V82.222V80.7821L78.3305 80.6736C77.9653 80.2875 77.5469 79.9554 77.0879 79.6874C76.2779 79.1928 75.3807 78.858 74.4447 78.7011C73.5268 78.544 72.5861 78.581 71.6832 78.8096C71.7744 78.5902 71.8086 78.3513 71.7828 78.115C71.7569 77.8788 71.6718 77.653 71.5353 77.4585C71.1802 76.9195 70.6952 76.4786 70.125 76.1763C69.5113 75.8192 68.8459 75.5596 68.1525 75.4071C67.5068 75.2506 66.8443 75.1744 66.18 75.1802C65.6648 75.1924 65.1537 75.2754 64.6612 75.4268L62.9352 74.4405L62.7281 73.5825H60.9529V75.1506L62.9254 76.275C62.7866 76.3396 62.6516 76.412 62.521 76.4919L61.3868 77.133L60.1639 76.5215V76.3243L57.7969 75.4465V77.0048L58.6352 77.4979L58.221 77.419V78.9773L72.2849 87.1829L73.7741 86.3248L75.7466 87.4492L77.3542 86.5221V84.9638L75.9438 85.6936L75.3817 85.3682L75.8847 85.0822L76.8709 84.4904L78.8434 85.6147L80.461 84.6877V83.1294L79.09 83.8987ZM65.9531 80.9399L62.7084 79.0463L63.9313 78.3362C64.9176 77.7642 65.5685 77.4289 65.8151 77.35C66.2269 77.1812 66.6758 77.1234 67.1169 77.1823C67.5881 77.2427 68.0415 77.4006 68.4483 77.6459C68.6264 77.7232 68.7871 77.8355 68.921 77.9761C69.0548 78.1167 69.159 78.2828 69.2275 78.4644C69.2547 78.6175 69.2343 78.7752 69.1691 78.9163C69.1038 79.0574 68.9968 79.1751 68.8626 79.2534C68.6949 79.3817 68.1919 79.6874 67.3635 80.1608L65.9531 80.9399ZM75.4211 82.4686C74.9917 82.8128 74.5292 83.1134 74.0404 83.3661L72.0679 84.4904L68.3103 82.3009L70.0362 81.3147C70.6906 80.896 71.3968 80.5645 72.1369 80.3284C72.5701 80.2446 73.0154 80.2446 73.4486 80.3284C73.9069 80.4195 74.3469 80.5861 74.7505 80.8216C75.1391 81.0011 75.4555 81.307 75.648 81.6895C75.7104 81.8311 75.722 81.99 75.6807 82.1393C75.6393 82.2885 75.5476 82.4188 75.4211 82.5081V82.4686Z" fill="#DD7105"/>
<path d="M78.8333 84.0566L76.8608 82.9323L75.8746 83.5142L75.3716 83.8101L77.2849 84.9245L75.6773 85.8417L73.7048 84.7273L72.2156 85.5755L58.1912 77.3797L59.6804 76.5316L57.7671 75.4072L59.3747 74.49L61.3472 75.6045L62.4814 74.9536L62.8857 74.7366L60.9132 73.6123L62.5307 72.6951L64.6215 73.9082C65.1146 73.7602 65.6256 73.6806 66.1403 73.6715C66.804 73.6669 67.466 73.7397 68.1128 73.8884C68.8054 74.0488 69.4701 74.3114 70.0853 74.6676C70.6556 74.9698 71.1406 75.4108 71.4957 75.9497C71.6321 76.1423 71.7173 76.3665 71.7432 76.6012C71.7691 76.8358 71.7348 77.0732 71.6436 77.291C72.5478 77.0704 73.4875 77.0369 74.4051 77.1924C75.3376 77.334 76.2347 77.652 77.0482 78.1293C77.6345 78.4516 78.1535 78.8835 78.5769 79.4016C78.9217 79.7785 79.1119 80.2715 79.1095 80.7823C79.0806 81.0181 79.0014 81.2449 78.8772 81.4474C78.753 81.6499 78.5867 81.8234 78.3895 81.9559L80.362 83.1296L78.8333 84.0566ZM62.7082 77.508L65.9529 79.4114L67.3633 78.6027C67.8796 78.325 68.3801 78.0188 68.8624 77.6855C68.9977 77.6082 69.1055 77.4907 69.1709 77.3493C69.2363 77.2079 69.256 77.0496 69.2273 76.8965C69.0834 76.533 68.8041 76.2395 68.4482 76.0779C68.0374 75.8412 67.5857 75.684 67.1167 75.6144C66.6747 75.5634 66.2271 75.6245 65.8149 75.7919C65.5683 75.8905 64.947 76.2357 63.9311 76.7781L62.7082 77.508ZM68.3002 80.7724L72.0578 82.9619L74.0303 81.8277C74.5202 81.5807 74.9829 81.2832 75.4111 80.9401C75.5237 80.8511 75.6054 80.7288 75.6444 80.5907C75.6834 80.4525 75.6776 80.3055 75.628 80.1708C75.4389 79.786 75.1215 79.4791 74.7305 79.3029C74.3293 79.0627 73.8884 78.8957 73.4287 78.8098C72.996 78.7208 72.5497 78.7208 72.117 78.8098C71.3751 79.0413 70.6683 79.3732 70.0163 79.7961L68.3002 80.7724Z" fill="#F9B815"/>
<g style="mix-blend-mode:overlay">
<g style="mix-blend-mode:overlay">
<g style="mix-blend-mode:overlay">
<path d="M78.8333 84.0566L76.8608 82.9323L75.8746 83.5142L75.3716 83.8101L77.2849 84.9245L75.6773 85.8417L73.7048 84.7273L72.2156 85.5755L58.1912 77.3797L59.6804 76.5316L57.7671 75.4072L59.3747 74.49L61.3472 75.6045L62.4814 74.9536L62.8857 74.7366L60.9132 73.6123L62.5307 72.6951L64.6215 73.9082C65.1146 73.7602 65.6256 73.6806 66.1403 73.6715C66.804 73.6669 67.466 73.7397 68.1128 73.8884C68.8054 74.0488 69.4701 74.3114 70.0853 74.6676C70.6556 74.9698 71.1406 75.4108 71.4957 75.9497C71.6321 76.1423 71.7173 76.3665 71.7432 76.6012C71.7691 76.8358 71.7348 77.0732 71.6436 77.291C72.5478 77.0704 73.4875 77.0369 74.4051 77.1924C75.3376 77.334 76.2347 77.652 77.0482 78.1293C77.6345 78.4516 78.1535 78.8835 78.5769 79.4016C78.9217 79.7785 79.1119 80.2715 79.1095 80.7823C79.0806 81.0181 79.0014 81.2449 78.8772 81.4474C78.753 81.6499 78.5867 81.8234 78.3895 81.9559L80.362 83.1296L78.8333 84.0566ZM62.7082 77.508L65.9529 79.4114L67.3633 78.6027C67.8796 78.325 68.3801 78.0188 68.8624 77.6855C68.9977 77.6082 69.1055 77.4907 69.1709 77.3493C69.2363 77.2079 69.256 77.0496 69.2273 76.8965C69.0834 76.533 68.8041 76.2395 68.4482 76.0779C68.0374 75.8412 67.5857 75.684 67.1167 75.6144C66.6747 75.5634 66.2271 75.6245 65.8149 75.7919C65.5683 75.8905 64.947 76.2357 63.9311 76.7781L62.7082 77.508ZM68.3002 80.7724L72.0578 82.9619L74.0303 81.8277C74.5202 81.5807 74.9829 81.2832 75.4111 80.9401C75.5237 80.8511 75.6054 80.7288 75.6444 80.5907C75.6834 80.4525 75.6776 80.3055 75.628 80.1708C75.4389 79.786 75.1215 79.4791 74.7305 79.3029C74.3293 79.0627 73.8884 78.8957 73.4287 78.8098C72.996 78.7208 72.5497 78.7208 72.117 78.8098C71.3751 79.0413 70.6683 79.3732 70.0163 79.7961L68.3002 80.7724Z" fill="#FFC100"/>
</g>
</g>
</g>
<path d="M63.4175 8.33828L61.0012 4.85683L67.185 1.1584C67.4372 0.975169 67.7045 0.813512 67.9838 0.675138L68.1219 0.596237C70.1634 -0.39001 72.7178 -0.123719 75.4892 1.53318C77.1871 2.59874 78.7023 3.93079 79.9766 5.47817L84.07 3.00268C84.336 2.82516 84.602 2.66736 84.878 2.51942C87.551 1.12882 90.963 1.36551 94.662 3.58457C103.075 8.61443 109.791 21.9189 109.653 33.2903C109.645 34.2402 109.579 35.1888 109.456 36.1307C114.407 41.0916 117.236 47.7826 117.346 54.7905C117.346 58.7355 116.073 61.5858 114.14 63.0257C113.865 63.2279 113.571 63.4029 113.262 63.5484L107.138 67.2074L101.477 60.994L101.822 60.0078L66.8398 39.6418C60.7251 35.9828 55.8431 26.3176 55.9911 18.043C56.0305 11.5633 59.1372 7.8846 63.4175 8.33828Z" fill="url(#paint3_linear_19_2)"/>
<path d="M79.9866 5.43897C78.7123 3.8916 77.1971 2.55955 75.4992 1.49399C72.7278 -0.16291 70.1735 -0.389752 68.1319 0.557046L67.9939 0.635947C67.7145 0.774321 67.4472 0.935977 67.195 1.11921L61.0112 4.81763L62.9837 7.62844L73.9409 10.8535L79.9866 5.43897Z" fill="url(#paint4_linear_19_2)"/>
<path d="M113.262 63.5091C113.569 63.3633 113.863 63.1917 114.14 62.9963C116.113 61.5564 117.296 58.6962 117.346 54.7611C117.234 47.7536 114.405 41.0633 109.456 36.1013L102.394 40.3422L103.38 63.0259L107.158 67.1878L113.262 63.5091Z" fill="url(#paint5_linear_19_2)"/>
<path d="M56.5239 12.5893C57.4116 5.25159 62.4414 2.19421 68.4378 5.77429C70.5681 7.12096 72.4252 8.85755 73.9115 10.8929C76.5152 5.74471 81.703 4.24561 87.62 7.77637C96.033 12.8161 102.739 26.1107 102.601 37.492C102.592 38.4383 102.529 39.3833 102.414 40.3225C107.363 45.2888 110.192 51.9819 110.304 58.9922C110.205 66.8822 105.373 70.4327 99.574 66.9512L59.7983 43.873C53.6836 40.2239 48.8016 30.5488 48.9496 22.2841C48.9594 15.7157 52.1549 12.0074 56.5239 12.5893Z" fill="#A3DBF7"/>
<g style="mix-blend-mode:overlay">
<g style="mix-blend-mode:overlay">
<path style="mix-blend-mode:overlay" d="M50.7935 15.6663L48.3772 12.1849L54.561 8.45684C54.8132 8.27362 55.0804 8.11196 55.3598 7.97359L55.4979 7.89468C57.5394 6.90844 60.0938 7.16486 62.8652 8.82176C64.5602 9.89113 66.0749 11.2227 67.3526 12.7667L71.5047 10.2913C71.764 10.1136 72.0341 9.95222 72.3134 9.80801C74.9467 8.45685 78.4084 8.6541 82.058 10.8633C90.47 15.8932 97.147 29.168 97.048 40.5789C97.04 41.5256 96.974 42.4708 96.851 43.4095C101.802 48.3745 104.631 55.0684 104.741 62.0791C104.692 66.0241 103.469 68.8645 101.536 70.3143C101.261 70.5164 100.967 70.6915 100.658 70.837L94.514 74.5354L88.853 68.3221L89.198 67.3358L54.2158 46.9205C48.101 43.2615 43.2191 33.5963 43.367 25.3315C43.4065 18.8913 46.5132 15.2028 50.7935 15.6663Z" fill="url(#paint6_linear_19_2)"/>
</g>
<g style="mix-blend-mode:overlay">
<path style="mix-blend-mode:overlay" d="M67.3626 12.7666C66.0849 11.2226 64.5702 9.89102 62.8752 8.82165C60.1038 7.16476 57.5494 6.94778 55.5079 7.89458L55.3698 7.97348C55.0905 8.11185 54.8232 8.27351 54.571 8.45674L48.3872 12.1552L50.3597 14.9561L61.3169 18.191L67.3626 12.7666Z" fill="url(#paint7_linear_19_2)"/>
</g>
<path style="mix-blend-mode:overlay" d="M100.638 70.8369C100.947 70.6914 101.241 70.5163 101.516 70.3142C103.489 68.8742 104.672 66.0141 104.722 62.079C104.612 55.071 101.783 48.38 96.832 43.4192L89.77 47.6502L90.756 70.3339L94.514 74.5353L100.638 70.8369Z" fill="url(#paint8_linear_19_2)"/>
<path style="mix-blend-mode:overlay" d="M43.8898 19.9171C44.7774 12.5795 49.8073 9.5221 55.8036 13.1022C57.9362 14.446 59.7937 16.1831 61.2773 18.2208C63.881 13.0627 69.0687 11.5636 74.9861 15.1043C83.399 20.1341 90.105 33.4386 89.967 44.8199C89.957 45.7661 89.895 46.7111 89.78 47.6504C94.729 52.6124 97.558 59.3027 97.67 66.3102C97.571 74.2002 92.739 77.7605 86.939 74.2692L47.1542 51.2009C41.0395 47.5419 36.1576 37.8767 36.3055 29.6021C36.345 23.0435 39.5306 19.3057 43.8898 19.9171Z" fill="url(#paint9_linear_19_2)"/>
</g>
<path d="M63.4181 8.33828L60.992 4.86669L67.1856 1.1584C67.4376 0.977641 67.7049 0.819243 67.9845 0.685004L68.1127 0.596238C70.1641 -0.39001 72.7185 -0.123718 75.4898 1.53318C77.1844 2.59932 78.6963 3.93136 79.9674 5.47817L84.07 3.00268C84.325 2.81982 84.592 2.65504 84.869 2.50956C87.552 1.11895 90.954 1.36551 94.662 3.57471C103.075 8.60457 109.782 21.909 109.644 33.2903C109.638 34.2198 109.582 35.1482 109.476 36.0716C114.431 41.0294 117.261 47.7223 117.366 54.7314C117.366 58.6763 116.103 61.5266 114.161 62.9665C113.889 63.1686 113.598 63.3437 113.293 63.4892L107.168 67.1581L101.507 60.9349L101.852 59.9486L66.8404 39.6418C60.7158 35.9828 55.8438 26.3176 55.9424 18.043C56.0213 11.5633 59.1378 7.8846 63.4181 8.33828Z" fill="#178AC3"/>
<path d="M79.9769 5.4983C78.7058 3.95149 77.1939 2.61944 75.4993 1.55331C72.7279 -0.103589 70.1736 -0.330423 68.1222 0.616374L67.994 0.705133C67.7144 0.839372 67.4471 0.997777 67.1951 1.17853L61.0015 4.88682L62.974 7.68777L73.941 10.9128L79.9769 5.4983Z" fill="#178AC3"/>
<path d="M113.263 63.5092C113.568 63.3671 113.859 63.1953 114.131 62.9964C116.103 61.5466 117.297 58.6865 117.336 54.7514C117.23 47.7427 114.4 41.0506 109.446 36.0916L102.385 40.3324L103.371 63.0161L107.158 67.1781L113.263 63.5092Z" fill="#178AC3"/>
<path d="M56.5238 12.5891C57.4114 5.25139 62.4413 2.19402 68.4278 5.78396C70.5654 7.12079 72.4268 8.85501 73.9114 10.8927C76.5151 5.74451 81.693 4.24541 87.61 7.78604C96.033 12.8159 102.739 26.1204 102.601 37.4918C102.592 38.4381 102.529 39.3831 102.414 40.3223C107.36 45.2903 110.189 51.9824 110.304 58.992C110.205 66.882 105.373 70.4325 99.574 66.951L59.7686 43.8827C53.6538 40.2237 48.7818 30.5486 48.9199 22.2839C48.9593 15.7155 52.1548 12.017 56.5238 12.5891Z" fill="#A3DBF7"/>
<path d="M50.7935 15.6665L48.3673 12.1851L54.561 8.45706C54.8118 8.2717 55.0792 8.10992 55.3598 7.9738L55.488 7.8949C57.5394 6.90865 60.0938 7.17494 62.8652 8.82198C64.5552 9.89417 66.0662 11.2254 67.3427 12.767L71.5047 10.2915C71.7616 10.1153 72.0283 9.95398 72.3036 9.80822C74.9861 8.42748 78.3887 8.66417 82.097 10.8734C90.47 15.9032 97.147 29.1683 97.039 40.5791C97.029 41.5254 96.966 42.4704 96.851 43.4097C101.806 48.3724 104.635 55.0677 104.741 62.0793C104.741 66.0243 103.479 68.8746 101.536 70.3145C101.264 70.5166 100.974 70.6917 100.668 70.8372L94.514 74.5356L88.853 68.3223L89.198 67.336L54.2158 46.9207C48.0912 43.2716 43.2191 33.5965 43.3671 25.3318C43.3966 18.8916 46.5132 15.2129 50.7935 15.6665Z" fill="url(#paint10_linear_19_2)"/>
<path d="M67.3528 12.7668C66.0763 11.2253 64.5653 9.89404 62.8753 8.82185C60.1039 7.17482 57.5495 6.94798 55.4981 7.89478L55.3699 7.97368C55.0893 8.1098 54.8219 8.27157 54.5711 8.45694L48.3774 12.1554L50.3499 14.9563L61.317 18.1912L67.3528 12.7668Z" fill="#1689C2"/>
<path d="M100.639 70.8371C100.944 70.6916 101.235 70.5165 101.506 70.3144C103.479 68.8745 104.672 66.0144 104.712 62.0792C104.607 55.0702 101.777 48.3773 96.822 43.4194L89.76 47.6603L90.697 70.344L94.514 74.5355L100.639 70.8371Z" fill="url(#paint11_linear_19_2)"/>
<path d="M43.8899 19.9174C44.7776 12.5797 49.8074 9.52234 55.8038 13.1024C57.9341 14.4491 59.7912 16.1857 61.2775 18.221C63.8812 13.0728 69.059 11.5737 74.9765 15.1045C83.399 20.1344 90.105 33.4388 89.967 44.8201C89.957 45.7664 89.895 46.7114 89.78 47.6507C94.726 52.615 97.554 59.3038 97.67 66.3105C97.571 74.2004 92.739 77.7608 86.94 74.2794L47.1446 51.2012C41.0298 47.5422 36.1578 37.8769 36.2958 29.6122C36.3353 23.0438 39.5307 19.3059 43.8899 19.9174Z" fill="url(#paint12_linear_19_2)"/>
<path d="M78.6258 83.412C76.9803 83.3599 75.3792 82.866 73.9904 81.9819L34.2249 58.9136C27.9327 55.1461 22.9028 45.2048 23.0014 36.7329C23.0014 32.7879 24.2046 29.6517 26.2462 27.8567C27.4887 26.7784 29.1005 26.2235 30.7435 26.3083C31.3254 22.6098 32.9724 19.9371 35.438 18.7339C37.9036 17.5307 40.6553 17.9153 43.5647 19.6511C45.4917 20.8439 47.1969 22.3623 48.6044 24.1385C49.7466 22.1363 51.6087 20.6445 53.8118 19.9667C56.5042 19.1876 59.5912 19.7695 62.688 21.6532C71.2782 26.7817 78.1425 40.3919 78.0044 51.9408C78.0044 52.8087 77.9354 53.6766 77.8466 54.5149C82.776 59.5933 85.578 66.3642 85.677 73.441C85.677 77.8397 84.119 81.1929 81.535 82.6329C80.647 83.1343 79.6458 83.4023 78.6258 83.412ZM30.4476 27.6594C29.2265 27.6415 28.0422 28.0772 27.1239 28.8824C25.3684 30.4012 24.3723 33.1923 24.3329 36.7724C24.2342 44.8103 28.9781 54.2388 34.8956 57.7893L74.6709 80.8576C76.9886 82.2384 79.2175 82.4751 80.943 81.5085C83.093 80.3053 84.346 77.3762 84.395 73.4608C84.305 66.6401 81.56 60.1233 76.742 55.2941L76.4955 55.0574V54.7221C76.6129 53.8094 76.6755 52.8906 76.6829 51.9704C76.8209 40.816 70.2427 27.7482 62.0174 22.8268C59.1967 21.1403 56.4648 20.6078 54.1274 21.2784C53.0421 21.6231 52.0418 22.1931 51.192 22.9511C50.3422 23.7091 49.6621 24.638 49.1962 25.6771L48.7129 26.6633L48.0718 25.8151C46.63 23.855 44.8336 22.1824 42.7757 20.8839C40.241 19.3651 37.8444 19.0692 35.9213 20.0259C33.7417 21.091 32.3017 23.6454 31.8678 27.2058L31.7889 27.8764L31.1281 27.7876C30.9043 27.7302 30.677 27.6874 30.4476 27.6594Z" fill="url(#paint13_linear_19_2)"/>
<path d="M197.529 137.651V131.3H191.326L158.72 112.403C153.858 109.582 145.347 109.918 139.716 113.153L109.645 130.451C109.398 130.589 109.162 130.737 108.935 130.885H104.99V136.803C104.99 138.548 106.104 140.215 108.264 141.468L143.838 162.09C148.7 164.911 157.212 164.566 162.843 161.331L192.914 144.042C196.04 142.237 197.618 139.919 197.579 137.74L197.529 137.651Z" fill="#9FD7F2"/>
<path d="M143.789 156.113L108.215 135.501C103.353 132.67 103.974 127.769 109.606 124.524L139.716 107.235C145.347 103.99 153.858 103.655 158.721 106.476L194.285 127.098C199.157 129.919 198.535 134.83 192.904 138.065L162.794 155.354C157.162 158.599 148.651 158.934 143.789 156.113Z" fill="#CFEEFD"/>
<path d="M148.079 142.03L133.976 134.022L133.985 125.708L148.089 133.706L148.079 142.03Z" fill="url(#paint14_linear_19_2)"/>
<path d="M161.62 134.219L148.089 126.654L161.63 125.855L161.62 134.219Z" fill="url(#paint15_linear_19_2)"/>
<path d="M150.91 105.519L150.9 121.812L165.881 116.604L175.201 101.574L166.621 94.5322L150.91 105.519Z" fill="#178AC3"/>
<path d="M150.929 81.2672L150.919 95.3705L168.771 87.3622L171.65 73.4265L163.05 71.3652L150.929 81.2672Z" fill="#178AC3"/>
<path d="M127.595 68.4461L134.025 64.7378L148.128 72.7461L141.698 76.4445L127.595 68.4461Z" fill="#4EADDD"/>
<path d="M161.67 64.9745L147.556 56.9761L140.978 60.7337L155.081 68.7321L161.67 64.9745Z" fill="#4EADDD"/>
<path d="M172.833 61.6111L159.371 53.8789L155.091 58.4156L169.559 64.4219L172.833 61.6111Z" fill="url(#paint16_linear_19_2)"/>
<path d="M134.025 56.4236L148.128 64.422V72.746L134.025 64.7376V56.4236Z" fill="#4EADDD"/>
<path d="M147.566 48.6125L161.67 56.6209V64.9744L147.557 56.9759L147.566 48.6125Z" fill="#4EADDD"/>
<path d="M154.519 44.5986L168.633 52.607L161.67 56.621L147.566 48.6127L154.519 44.5986Z" fill="#A3DBF7"/>
<path d="M140.988 52.4097L155.091 60.418L148.128 64.4222L134.025 56.4237L140.988 52.4097Z" fill="#A3DBF7"/>
<path d="M161.62 134.219V125.856C160.305 126.645 158.839 127.506 157.221 128.44L155.032 129.692V138.016L148.069 142.02V133.706L141.688 137.414V76.4446L148.118 72.7462V64.4223L155.081 60.4181V68.7322L160.012 65.9115C160.594 65.5762 161.157 65.2606 161.699 64.9746V56.6605L168.662 52.6465V61.7101C170.026 61.2554 171.498 61.2382 172.873 61.6608C174.39 62.1992 175.648 63.2914 176.394 64.7182C177.415 66.6632 177.899 68.8456 177.794 71.04C177.761 74.0797 177.173 77.0877 176.059 79.9162C174.968 82.8545 173.38 85.5835 171.364 87.9837C174.145 87.4643 176.286 88.0725 177.785 89.8083C179.284 91.5539 180.023 94.1872 180.023 97.6983C179.984 100.729 179.492 103.738 178.564 106.624C177.672 109.663 176.343 112.557 174.619 115.214C173.018 117.654 170.998 119.791 168.652 121.526V130.254L161.62 134.219ZM150.909 105.509V121.812L159.46 116.881C161.662 115.689 163.778 114.344 165.792 112.857C167.217 111.665 168.362 110.173 169.145 108.488C170.025 106.641 170.471 104.616 170.447 102.57C170.557 101.139 170.212 99.7102 169.461 98.4873C169.131 98.0526 168.688 97.7175 168.179 97.5191C167.671 97.3206 167.118 97.2666 166.581 97.3629C165.318 97.5142 162.587 98.7996 158.385 101.219L150.909 105.509ZM150.909 81.2674V95.3707L156.965 91.8794C160.555 89.8083 162.79 88.4505 163.671 87.8062C165.232 86.6661 166.508 85.181 167.399 83.4667C168.303 81.7594 168.77 79.8555 168.76 77.924C168.76 76.0403 168.376 74.7384 167.597 73.979C166.818 73.2196 165.624 73.1999 164.115 73.841C163.201 74.2223 160.571 75.6688 156.225 78.1804L150.909 81.2674Z" fill="url(#paint17_linear_19_2)"/>
<path d="M127.595 68.4463L141.698 76.4447L141.659 137.415L127.555 129.406L127.595 68.4463Z" fill="#A3DBF7"/>
<path d="M164.766 136.399V128.035C163.455 128.814 161.995 129.682 160.368 130.609L158.178 131.872V140.196L151.225 144.2V135.886L144.795 139.594V78.6242L151.225 74.9159V66.6018L158.129 62.5878V70.9118L163.06 68.0812C163.642 67.7459 164.204 67.4402 164.747 67.1542V58.7908L171.7 54.7866V63.8502C173.064 63.3982 174.535 63.3775 175.911 63.7911C177.428 64.335 178.687 65.4252 179.442 66.8484C180.46 68.798 180.94 70.9835 180.832 73.1801C180.803 76.2202 180.214 79.229 179.097 82.0564C178.006 84.9947 176.418 87.7236 174.402 90.1238C177.183 89.5979 179.323 90.206 180.823 91.9484C182.322 93.6908 183.068 96.3208 183.061 99.8384C183.021 102.869 182.532 105.876 181.612 108.764C180.714 111.801 179.385 114.694 177.667 117.354C176.068 119.793 174.048 121.927 171.7 123.656V132.394L164.766 136.399ZM154.056 107.689V123.992L162.597 119.06C164.804 117.878 166.921 116.533 168.928 115.036C170.357 113.849 171.505 112.36 172.292 110.677C173.163 108.827 173.604 106.804 173.583 104.76C173.701 103.328 173.355 101.897 172.597 100.677C172.268 100.242 171.824 99.9069 171.316 99.7085C170.808 99.5101 170.254 99.456 169.717 99.5524C168.455 99.697 165.726 100.979 161.532 103.399L154.056 107.689ZM154.056 83.447V97.5404L160.111 94.059C163.711 91.978 165.95 90.6268 166.818 89.9759C168.378 88.8397 169.654 87.3579 170.546 85.6463C171.448 83.9386 171.915 82.0349 171.907 80.1036C171.907 78.2198 171.522 76.9081 170.743 76.1586C169.964 75.409 168.771 75.3893 167.262 76.0304C166.341 76.4117 163.711 77.8582 159.372 80.3699L154.056 83.447Z" fill="url(#paint18_linear_19_2)"/>
<path d="M93.506 143.22C90.903 138.742 83.989 135.527 75.8329 135.527C67.6767 135.527 60.7631 138.742 58.1594 143.22H57.0449V147.165C57.0449 153.585 65.4576 158.783 75.7836 158.783C86.11 158.783 94.572 153.585 94.572 147.165V143.22H93.506Z" fill="#DD7105"/>
<path d="M75.8329 154.838C86.209 154.838 94.621 149.636 94.621 143.22C94.621 136.804 86.209 131.602 75.8329 131.602C65.4566 131.602 57.0449 136.804 57.0449 143.22C57.0449 149.636 65.4566 154.838 75.8329 154.838Z" fill="#FFD264"/>
<path d="M75.8329 151.435C84.123 151.435 90.844 147.523 90.844 142.697C90.844 137.871 84.123 133.959 75.8329 133.959C67.5428 133.959 60.8223 137.871 60.8223 142.697C60.8223 147.523 67.5428 151.435 75.8329 151.435Z" fill="#FFE193"/>
<path d="M75.833 133.959C67.5485 133.959 60.8223 137.904 60.8223 142.697C60.8315 143.127 60.8911 143.554 60.9998 143.969C62.0649 139.748 68.2882 136.504 75.7935 136.504C83.299 136.504 89.601 139.748 90.587 143.969C90.696 143.554 90.756 143.127 90.765 142.697C90.834 137.874 84.117 133.959 75.833 133.959Z" fill="#FFC30D"/>
<path d="M86.09 146.899L85.429 146.514C85.627 146.382 85.794 146.209 85.919 146.007C86.043 145.804 86.122 145.577 86.149 145.34V145.222V143.782L85.331 143.674C84.965 143.288 84.547 142.955 84.088 142.687C83.278 142.193 82.381 141.858 81.445 141.701C80.527 141.544 79.5861 141.581 78.6832 141.81C78.7744 141.59 78.8086 141.351 78.7828 141.115C78.7569 140.879 78.6718 140.653 78.5353 140.458C78.1802 139.92 77.6952 139.479 77.125 139.176C76.5113 138.819 75.8459 138.56 75.1525 138.407C74.5068 138.251 73.8443 138.174 73.18 138.18C72.6648 138.192 72.1537 138.275 71.6612 138.427L69.9352 137.441L69.7281 136.583H67.9529V138.151L69.9254 139.275C69.7866 139.34 69.6516 139.412 69.521 139.492L68.3868 140.133L67.1639 139.522V139.324L64.7969 138.447V140.005L65.6352 140.498L65.221 140.419V141.977L79.2849 150.183L80.774 149.325L82.747 150.449L84.354 149.522V147.964L82.944 148.694L82.382 148.368L82.885 148.082L83.871 147.49L85.843 148.615L87.461 147.688V146.129L86.09 146.899ZM72.9531 143.94L69.7084 142.046L70.9313 141.336C71.9176 140.764 72.5685 140.429 72.8151 140.35C73.2269 140.181 73.6758 140.123 74.1169 140.182C74.5881 140.243 75.0415 140.401 75.4483 140.646C75.6264 140.723 75.7871 140.835 75.921 140.976C76.0548 141.117 76.159 141.283 76.2275 141.464C76.2547 141.617 76.2343 141.775 76.1691 141.916C76.1038 142.057 75.9968 142.175 75.8626 142.253C75.6949 142.382 75.1919 142.687 74.3635 143.161L72.9531 143.94ZM82.421 145.469C81.992 145.813 81.529 146.113 81.04 146.366L79.0679 147.49L75.3103 145.301L77.0362 144.315C77.6906 143.896 78.3968 143.564 79.1369 143.328C79.5701 143.245 80.015 143.245 80.449 143.328C80.907 143.419 81.347 143.586 81.75 143.822C82.139 144.001 82.456 144.307 82.648 144.689C82.71 144.831 82.722 144.99 82.681 145.139C82.639 145.288 82.548 145.419 82.421 145.508V145.469Z" fill="#DD7105"/>
<path d="M85.833 147.057L83.861 145.932L82.875 146.514L82.372 146.81L84.285 147.925L82.677 148.842L80.705 147.727L79.2156 148.575L65.1912 140.38L66.6804 139.532L64.7671 138.407L66.3747 137.49L68.3472 138.605L69.4814 137.954L69.8857 137.737L67.9132 136.612L69.5307 135.695L71.6215 136.908C72.1146 136.76 72.6256 136.681 73.1403 136.671C73.804 136.667 74.466 136.74 75.1128 136.888C75.8054 137.049 76.4701 137.311 77.0853 137.668C77.6556 137.97 78.1406 138.411 78.4957 138.95C78.6321 139.142 78.7173 139.367 78.7432 139.601C78.7691 139.836 78.7348 140.073 78.6436 140.291C79.5478 140.07 80.487 140.037 81.405 140.192C82.338 140.334 83.235 140.652 84.048 141.129C84.635 141.452 85.153 141.884 85.577 142.402C85.922 142.778 86.112 143.271 86.109 143.782C86.081 144.018 86.001 144.245 85.877 144.447C85.753 144.65 85.587 144.823 85.39 144.956L87.362 146.13L85.833 147.057ZM69.7082 140.508L72.9529 142.411L74.3633 141.603C74.8796 141.325 75.3801 141.019 75.8624 140.685C75.9977 140.608 76.1055 140.491 76.1709 140.349C76.2363 140.208 76.256 140.05 76.2273 139.896C76.0834 139.533 75.8041 139.24 75.4482 139.078C75.0374 138.841 74.5857 138.684 74.1167 138.614C73.6747 138.563 73.2271 138.624 72.8149 138.792C72.5683 138.891 71.947 139.236 70.9311 139.778L69.7082 140.508ZM75.3002 143.772L79.0578 145.962L81.03 144.828C81.52 144.581 81.983 144.283 82.411 143.94C82.524 143.851 82.605 143.729 82.644 143.591C82.683 143.453 82.678 143.306 82.628 143.171C82.439 142.786 82.122 142.479 81.731 142.303C81.329 142.063 80.888 141.896 80.429 141.81C79.996 141.721 79.5497 141.721 79.117 141.81C78.3751 142.041 77.6683 142.373 77.0163 142.796L75.3002 143.772Z" fill="#F9B815"/>
<g style="mix-blend-mode:overlay">
<g style="mix-blend-mode:overlay">
<g style="mix-blend-mode:overlay">
<path d="M85.833 147.057L83.861 145.932L82.875 146.514L82.372 146.81L84.285 147.925L82.677 148.842L80.705 147.727L79.2156 148.575L65.1912 140.38L66.6804 139.532L64.7671 138.407L66.3747 137.49L68.3472 138.605L69.4814 137.954L69.8857 137.737L67.9132 136.612L69.5307 135.695L71.6215 136.908C72.1146 136.76 72.6256 136.681 73.1403 136.671C73.804 136.667 74.466 136.74 75.1128 136.888C75.8054 137.049 76.4701 137.311 77.0853 137.668C77.6556 137.97 78.1406 138.411 78.4957 138.95C78.6321 139.142 78.7173 139.367 78.7432 139.601C78.7691 139.836 78.7348 140.073 78.6436 140.291C79.5478 140.07 80.487 140.037 81.405 140.192C82.338 140.334 83.235 140.652 84.048 141.129C84.635 141.452 85.153 141.884 85.577 142.402C85.922 142.778 86.112 143.271 86.109 143.782C86.081 144.018 86.001 144.245 85.877 144.447C85.753 144.65 85.587 144.823 85.39 144.956L87.362 146.13L85.833 147.057ZM69.7082 140.508L72.9529 142.411L74.3633 141.603C74.8796 141.325 75.3801 141.019 75.8624 140.685C75.9977 140.608 76.1055 140.491 76.1709 140.349C76.2363 140.208 76.256 140.05 76.2273 139.896C76.0834 139.533 75.8041 139.24 75.4482 139.078C75.0374 138.841 74.5857 138.684 74.1167 138.614C73.6747 138.563 73.2271 138.624 72.8149 138.792C72.5683 138.891 71.947 139.236 70.9311 139.778L69.7082 140.508ZM75.3002 143.772L79.0578 145.962L81.03 144.828C81.52 144.581 81.983 144.283 82.411 143.94C82.524 143.851 82.605 143.729 82.644 143.591C82.683 143.453 82.678 143.306 82.628 143.171C82.439 142.786 82.122 142.479 81.731 142.303C81.329 142.063 80.888 141.896 80.429 141.81C79.996 141.721 79.5497 141.721 79.117 141.81C78.3751 142.041 77.6683 142.373 77.0163 142.796L75.3002 143.772Z" fill="#FFC100"/>
</g>
</g>
</g>
<path d="M61.9109 183.273H63.2319V189.013C63.2319 189.624 63.0884 190.165 62.8015 190.636C62.5146 191.105 62.1112 191.474 61.5913 191.744C61.0714 192.011 60.462 192.145 59.7631 192.145C59.0671 192.145 58.4592 192.011 57.9393 191.744C57.4194 191.474 57.016 191.105 56.729 190.636C56.4421 190.165 56.2987 189.624 56.2987 189.013V183.273H57.6154V188.906C57.6154 189.301 57.7021 189.652 57.8754 189.959C58.0515 190.266 58.3001 190.507 58.6211 190.683C58.9421 190.857 59.3228 190.943 59.7631 190.943C60.2063 190.943 60.5884 190.857 60.9094 190.683C61.2333 190.507 61.4805 190.266 61.6509 189.959C61.8242 189.652 61.9109 189.301 61.9109 188.906V183.273ZM66.3182 188.114V192H65.044V185.455H66.267V186.52H66.348C66.4986 186.173 66.7344 185.895 67.0554 185.685C67.3793 185.474 67.7869 185.369 68.2784 185.369C68.7244 185.369 69.1151 185.463 69.4503 185.651C69.7855 185.835 70.0455 186.111 70.2301 186.477C70.4148 186.844 70.5071 187.297 70.5071 187.837V192H69.233V187.99C69.233 187.516 69.1094 187.145 68.8622 186.878C68.6151 186.608 68.2756 186.473 67.8438 186.473C67.5483 186.473 67.2855 186.537 67.0554 186.665C66.8281 186.793 66.6477 186.98 66.5142 187.227C66.3835 187.472 66.3182 187.767 66.3182 188.114ZM73.4901 183.273V192H72.2159V183.273H73.4901ZM77.9613 192.132C77.3477 192.132 76.8121 191.991 76.3548 191.71C75.8974 191.429 75.5423 191.036 75.2894 190.53C75.0366 190.024 74.9102 189.433 74.9102 188.757C74.9102 188.078 75.0366 187.484 75.2894 186.976C75.5423 186.467 75.8974 186.072 76.3548 185.791C76.8121 185.51 77.3477 185.369 77.9613 185.369C78.5749 185.369 79.1104 185.51 79.5678 185.791C80.025 186.072 80.38 186.467 80.633 186.976C80.886 187.484 81.012 188.078 81.012 188.757C81.012 189.433 80.886 190.024 80.633 190.53C80.38 191.036 80.025 191.429 79.5678 191.71C79.1104 191.991 78.5749 192.132 77.9613 192.132ZM77.9656 191.062C78.3633 191.062 78.6928 190.957 78.9542 190.747C79.2156 190.537 79.4087 190.257 79.5337 189.908C79.6616 189.558 79.7255 189.173 79.7255 188.753C79.7255 188.335 79.6616 187.952 79.5337 187.602C79.4087 187.25 79.2156 186.967 78.9542 186.754C78.6928 186.541 78.3633 186.435 77.9656 186.435C77.565 186.435 77.2326 186.541 76.9684 186.754C76.707 186.967 76.5124 187.25 76.3846 187.602C76.2596 187.952 76.1971 188.335 76.1971 188.753C76.1971 189.173 76.2596 189.558 76.3846 189.908C76.5124 190.257 76.707 190.537 76.9684 190.747C77.2326 190.957 77.565 191.062 77.9656 191.062ZM85.192 192.132C84.558 192.132 84.013 191.989 83.555 191.702C83.101 191.412 82.751 191.013 82.507 190.504C82.263 189.996 82.141 189.413 82.141 188.757C82.141 188.092 82.266 187.506 82.516 186.997C82.766 186.486 83.118 186.087 83.572 185.8C84.027 185.513 84.563 185.369 85.179 185.369C85.676 185.369 86.119 185.462 86.509 185.646C86.898 185.828 87.212 186.084 87.45 186.413C87.692 186.743 87.835 187.128 87.881 187.568H86.641C86.572 187.261 86.416 186.997 86.172 186.776C85.93 186.554 85.607 186.443 85.2 186.443C84.845 186.443 84.534 186.537 84.267 186.724C84.003 186.909 83.797 187.173 83.649 187.517C83.501 187.858 83.428 188.261 83.428 188.727C83.428 189.205 83.5 189.616 83.645 189.963C83.79 190.31 83.994 190.578 84.259 190.768C84.526 190.959 84.839 191.054 85.2 191.054C85.442 191.054 85.661 191.01 85.857 190.922C86.055 190.831 86.222 190.702 86.355 190.534C86.491 190.366 86.587 190.165 86.641 189.929H87.881C87.835 190.352 87.697 190.73 87.467 191.062C87.237 191.395 86.929 191.656 86.543 191.847C86.159 192.037 85.709 192.132 85.192 192.132ZM90.415 189.78L90.407 188.224H90.628L93.236 185.455H94.762L91.787 188.608H91.587L90.415 189.78ZM89.243 192V183.273H90.517V192H89.243ZM93.377 192L91.033 188.889L91.911 187.999L94.941 192H93.377ZM99.099 192V185.455H100.322V186.52H100.403C100.539 186.159 100.762 185.878 101.072 185.676C101.381 185.472 101.752 185.369 102.184 185.369C102.621 185.369 102.988 185.472 103.283 185.676C103.582 185.881 103.802 186.162 103.944 186.52H104.012C104.168 186.17 104.417 185.892 104.758 185.685C105.099 185.474 105.505 185.369 105.977 185.369C106.57 185.369 107.055 185.555 107.43 185.928C107.808 186.3 107.996 186.861 107.996 187.611V192H106.722V187.73C106.722 187.287 106.602 186.966 106.36 186.767C106.119 186.568 105.83 186.469 105.495 186.469C105.08 186.469 104.758 186.597 104.528 186.852C104.298 187.105 104.183 187.43 104.183 187.828V192H102.913V187.649C102.913 187.294 102.802 187.009 102.58 186.793C102.359 186.577 102.07 186.469 101.715 186.469C101.474 186.469 101.251 186.533 101.046 186.661C100.844 186.786 100.681 186.96 100.556 187.185C100.434 187.409 100.373 187.669 100.373 187.964V192H99.099ZM112.461 192.132C111.848 192.132 111.312 191.991 110.855 191.71C110.397 191.429 110.042 191.036 109.789 190.53C109.537 190.024 109.41 189.433 109.41 188.757C109.41 188.078 109.537 187.484 109.789 186.976C110.042 186.467 110.397 186.072 110.855 185.791C111.312 185.51 111.848 185.369 112.461 185.369C113.075 185.369 113.61 185.51 114.068 185.791C114.525 186.072 114.88 186.467 115.133 186.976C115.386 187.484 115.512 188.078 115.512 188.757C115.512 189.433 115.386 190.024 115.133 190.53C114.88 191.036 114.525 191.429 114.068 191.71C113.61 191.991 113.075 192.132 112.461 192.132ZM112.466 191.062C112.863 191.062 113.193 190.957 113.454 190.747C113.716 190.537 113.909 190.257 114.034 189.908C114.162 189.558 114.225 189.173 114.225 188.753C114.225 188.335 114.162 187.952 114.034 187.602C113.909 187.25 113.716 186.967 113.454 186.754C113.193 186.541 112.863 186.435 112.466 186.435C112.065 186.435 111.733 186.541 111.468 186.754C111.207 186.967 111.012 187.25 110.885 187.602C110.76 187.952 110.697 188.335 110.697 188.753C110.697 189.173 110.76 189.558 110.885 189.908C111.012 190.257 111.207 190.537 111.468 190.747C111.733 190.957 112.065 191.062 112.466 191.062ZM116.935 192V185.455H118.166V186.494H118.234C118.354 186.142 118.564 185.865 118.865 185.663C119.169 185.459 119.513 185.357 119.896 185.357C119.976 185.357 120.07 185.359 120.178 185.365C120.288 185.371 120.375 185.378 120.438 185.386V186.605C120.386 186.591 120.295 186.575 120.165 186.558C120.034 186.538 119.903 186.528 119.773 186.528C119.472 186.528 119.203 186.592 118.967 186.72C118.734 186.845 118.55 187.02 118.413 187.244C118.277 187.466 118.209 187.719 118.209 188.003V192H116.935ZM124.127 192.132C123.482 192.132 122.926 191.994 122.461 191.719C121.998 191.44 121.64 191.05 121.387 190.547C121.137 190.041 121.012 189.449 121.012 188.77C121.012 188.099 121.137 187.509 121.387 186.997C121.64 186.486 121.992 186.087 122.444 185.8C122.898 185.513 123.429 185.369 124.037 185.369C124.407 185.369 124.765 185.43 125.111 185.553C125.458 185.675 125.769 185.866 126.044 186.128C126.32 186.389 126.537 186.729 126.696 187.146C126.855 187.561 126.935 188.065 126.935 188.659V189.111H121.732V188.156H125.686C125.686 187.821 125.618 187.524 125.482 187.266C125.346 187.004 125.154 186.798 124.907 186.648C124.662 186.497 124.375 186.422 124.046 186.422C123.688 186.422 123.375 186.51 123.108 186.686C122.844 186.859 122.64 187.087 122.495 187.368C122.353 187.646 122.282 187.949 122.282 188.276V189.021C122.282 189.459 122.358 189.831 122.512 190.138C122.668 190.445 122.885 190.679 123.164 190.841C123.442 191 123.767 191.08 124.14 191.08C124.381 191.08 124.601 191.045 124.8 190.977C124.999 190.906 125.171 190.801 125.316 190.662C125.461 190.523 125.571 190.351 125.648 190.146L126.854 190.364C126.757 190.719 126.584 191.03 126.334 191.297C126.087 191.561 125.776 191.767 125.401 191.915C125.029 192.06 124.604 192.132 124.127 192.132ZM131.627 192V183.273H132.901V186.516H132.978C133.051 186.379 133.158 186.222 133.297 186.043C133.436 185.864 133.63 185.707 133.877 185.574C134.124 185.438 134.451 185.369 134.857 185.369C135.385 185.369 135.857 185.503 136.272 185.77C136.686 186.037 137.012 186.422 137.248 186.925C137.486 187.428 137.605 188.033 137.605 188.74C137.605 189.447 137.488 190.054 137.252 190.56C137.016 191.062 136.692 191.45 136.28 191.723C135.868 191.993 135.398 192.128 134.87 192.128C134.472 192.128 134.147 192.061 133.894 191.928C133.644 191.794 133.448 191.638 133.306 191.459C133.164 191.28 133.054 191.121 132.978 190.982H132.871V192H131.627ZM132.875 188.727C132.875 189.187 132.942 189.591 133.076 189.938C133.209 190.284 133.402 190.555 133.655 190.751C133.908 190.945 134.218 191.041 134.584 191.041C134.965 191.041 135.283 190.94 135.539 190.739C135.794 190.534 135.988 190.257 136.118 189.908C136.252 189.558 136.319 189.165 136.319 188.727C136.319 188.295 136.253 187.908 136.123 187.564C135.995 187.22 135.801 186.949 135.543 186.75C135.287 186.551 134.968 186.452 134.584 186.452C134.215 186.452 133.902 186.547 133.647 186.737C133.394 186.928 133.202 187.193 133.071 187.534C132.941 187.875 132.875 188.273 132.875 188.727ZM141.793 192.132C141.18 192.132 140.644 191.991 140.187 191.71C139.729 191.429 139.374 191.036 139.121 190.53C138.869 190.024 138.742 189.433 138.742 188.757C138.742 188.078 138.869 187.484 139.121 186.976C139.374 186.467 139.729 186.072 140.187 185.791C140.644 185.51 141.18 185.369 141.793 185.369C142.407 185.369 142.942 185.51 143.4 185.791C143.857 186.072 144.212 186.467 144.465 186.976C144.718 187.484 144.844 188.078 144.844 188.757C144.844 189.433 144.718 190.024 144.465 190.53C144.212 191.036 143.857 191.429 143.4 191.71C142.942 191.991 142.407 192.132 141.793 192.132ZM141.798 191.062C142.195 191.062 142.525 190.957 142.786 190.747C143.048 190.537 143.241 190.257 143.366 189.908C143.494 189.558 143.558 189.173 143.558 188.753C143.558 188.335 143.494 187.952 143.366 187.602C143.241 187.25 143.048 186.967 142.786 186.754C142.525 186.541 142.195 186.435 141.798 186.435C141.397 186.435 141.065 186.541 140.8 186.754C140.539 186.967 140.344 187.25 140.217 187.602C140.092 187.952 140.029 188.335 140.029 188.753C140.029 189.173 140.092 189.558 140.217 189.908C140.344 190.257 140.539 190.537 140.8 190.747C141.065 190.957 141.397 191.062 141.798 191.062ZM149.322 185.455V186.477H145.747V185.455H149.322ZM146.706 183.886H147.98V190.078C147.98 190.325 148.017 190.511 148.091 190.636C148.164 190.759 148.26 190.842 148.376 190.888C148.495 190.93 148.625 190.952 148.764 190.952C148.866 190.952 148.956 190.945 149.032 190.93C149.109 190.916 149.169 190.905 149.211 190.896L149.441 191.949C149.368 191.977 149.262 192.006 149.126 192.034C148.99 192.065 148.819 192.082 148.615 192.085C148.279 192.091 147.967 192.031 147.677 191.906C147.387 191.781 147.153 191.588 146.974 191.327C146.795 191.065 146.706 190.737 146.706 190.342V183.886ZM155.531 187.053L154.376 187.257C154.328 187.109 154.251 186.969 154.146 186.835C154.044 186.702 153.904 186.592 153.728 186.507C153.552 186.422 153.332 186.379 153.068 186.379C152.707 186.379 152.406 186.46 152.164 186.622C151.923 186.781 151.802 186.987 151.802 187.24C151.802 187.459 151.883 187.635 152.045 187.768C152.207 187.902 152.468 188.011 152.829 188.097L153.869 188.335C154.471 188.474 154.92 188.689 155.216 188.979C155.511 189.268 155.659 189.645 155.659 190.108C155.659 190.5 155.545 190.849 155.318 191.156C155.093 191.46 154.779 191.699 154.376 191.872C153.975 192.045 153.511 192.132 152.983 192.132C152.25 192.132 151.652 191.976 151.189 191.663C150.725 191.348 150.441 190.901 150.336 190.321L151.568 190.134C151.645 190.455 151.802 190.697 152.041 190.862C152.279 191.024 152.591 191.105 152.974 191.105C153.392 191.105 153.725 191.018 153.975 190.845C154.225 190.669 154.35 190.455 154.35 190.202C154.35 189.997 154.274 189.825 154.12 189.686C153.97 189.547 153.738 189.442 153.426 189.371L152.318 189.128C151.707 188.989 151.255 188.767 150.963 188.463C150.673 188.159 150.528 187.774 150.528 187.308C150.528 186.922 150.636 186.584 150.852 186.294C151.068 186.004 151.366 185.778 151.747 185.616C152.127 185.452 152.564 185.369 153.055 185.369C153.762 185.369 154.319 185.523 154.725 185.83C155.132 186.134 155.4 186.541 155.531 187.053ZM158.717 190.807L158.653 191.271C158.611 191.612 158.538 191.967 158.436 192.337C158.337 192.709 158.233 193.054 158.125 193.372C158.02 193.69 157.933 193.943 157.865 194.131H156.962C156.999 193.955 157.05 193.716 157.115 193.415C157.18 193.116 157.244 192.783 157.307 192.413C157.369 192.044 157.416 191.668 157.447 191.284L157.49 190.807H158.717ZM70.1268 201.455V202.477H66.5515V201.455H70.1268ZM67.5103 199.886H68.7844V206.078C68.7844 206.325 68.8214 206.511 68.8952 206.636C68.9691 206.759 69.0643 206.842 69.1808 206.888C69.3001 206.93 69.4293 206.952 69.5685 206.952C69.6708 206.952 69.7603 206.945 69.837 206.93C69.9137 206.916 69.9734 206.905 70.016 206.896L70.2461 207.949C70.1722 207.977 70.0671 208.006 69.9308 208.034C69.7944 208.065 69.6239 208.082 69.4194 208.085C69.0842 208.091 68.7717 208.031 68.4819 207.906C68.1921 207.781 67.9577 207.588 67.7788 207.327C67.5998 207.065 67.5103 206.737 67.5103 206.342V199.886ZM71.5362 208V201.455H72.7678V202.494H72.8359C72.9553 202.142 73.1655 201.865 73.4666 201.663C73.7706 201.459 74.1143 201.357 74.4979 201.357C74.5774 201.357 74.6712 201.359 74.7791 201.365C74.8899 201.371 74.9766 201.378 75.0391 201.386V202.605C74.9879 202.591 74.897 202.575 74.7663 202.558C74.6357 202.538 74.505 202.528 74.3743 202.528C74.0732 202.528 73.8047 202.592 73.5689 202.72C73.3359 202.845 73.1513 203.02 73.0149 203.244C72.8786 203.466 72.8104 203.719 72.8104 204.003V208H71.5362ZM77.9879 208.145C77.5732 208.145 77.1982 208.068 76.8629 207.915C76.5277 207.759 76.2621 207.533 76.0661 207.237C75.8729 206.942 75.7763 206.58 75.7763 206.151C75.7763 205.781 75.8473 205.477 75.9893 205.239C76.1314 205 76.3232 204.811 76.5646 204.672C76.8061 204.533 77.076 204.428 77.3743 204.357C77.6726 204.286 77.9766 204.232 78.2862 204.195C78.6783 204.149 78.9964 204.112 79.2408 204.084C79.4851 204.053 79.6626 204.003 79.7734 203.935C79.8842 203.866 79.9396 203.756 79.9396 203.602V203.572C79.9396 203.2 79.8345 202.912 79.6243 202.707C79.4169 202.503 79.1072 202.401 78.6953 202.401C78.2663 202.401 77.9283 202.496 77.6811 202.686C77.4368 202.874 77.2678 203.082 77.174 203.312L75.9766 203.04C76.1186 202.642 76.326 202.321 76.5987 202.077C76.8743 201.83 77.1911 201.651 77.549 201.54C77.907 201.426 78.2834 201.369 78.6783 201.369C78.9396 201.369 79.2166 201.401 79.5092 201.463C79.8047 201.523 80.08 201.634 80.336 201.795C80.594 201.957 80.806 202.189 80.971 202.49C81.136 202.788 81.218 203.176 81.218 203.653V208H79.9737V207.105H79.9226C79.8402 207.27 79.7166 207.432 79.5518 207.591C79.3871 207.75 79.1754 207.882 78.9169 207.987C78.6584 208.092 78.3487 208.145 77.9879 208.145ZM78.2649 207.122C78.6172 207.122 78.9183 207.053 79.1683 206.913C79.4212 206.774 79.6129 206.592 79.7436 206.368C79.8771 206.141 79.9439 205.898 79.9439 205.639V204.795C79.8984 204.841 79.8104 204.884 79.6797 204.923C79.5518 204.96 79.4055 204.993 79.2408 205.021C79.076 205.047 78.9155 205.071 78.7592 205.094C78.603 205.114 78.4723 205.131 78.3672 205.145C78.12 205.176 77.8942 205.229 77.6896 205.303C77.4879 205.376 77.326 205.483 77.2038 205.622C77.0845 205.759 77.0249 205.94 77.0249 206.168C77.0249 206.483 77.1413 206.722 77.3743 206.884C77.6072 207.043 77.9041 207.122 78.2649 207.122ZM85.365 208.128C84.837 208.128 84.365 207.993 83.951 207.723C83.539 207.45 83.215 207.062 82.979 206.56C82.746 206.054 82.63 205.447 82.63 204.74C82.63 204.033 82.748 203.428 82.983 202.925C83.222 202.422 83.549 202.037 83.963 201.77C84.378 201.503 84.848 201.369 85.374 201.369C85.78 201.369 86.107 201.438 86.354 201.574C86.604 201.707 86.797 201.864 86.934 202.043C87.073 202.222 87.181 202.379 87.257 202.516H87.334V199.273H88.608V208H87.364V206.982H87.257C87.181 207.121 87.07 207.28 86.925 207.459C86.783 207.638 86.587 207.794 86.337 207.928C86.087 208.061 85.763 208.128 85.365 208.128ZM85.647 207.041C86.013 207.041 86.323 206.945 86.576 206.751C86.831 206.555 87.025 206.284 87.155 205.938C87.289 205.591 87.355 205.187 87.355 204.727C87.355 204.273 87.29 203.875 87.159 203.534C87.029 203.193 86.837 202.928 86.584 202.737C86.331 202.547 86.019 202.452 85.647 202.452C85.263 202.452 84.944 202.551 84.688 202.75C84.432 202.949 84.239 203.22 84.108 203.564C83.98 203.908 83.917 204.295 83.917 204.727C83.917 205.165 83.982 205.558 84.113 205.908C84.243 206.257 84.436 206.534 84.692 206.739C84.951 206.94 85.269 207.041 85.647 207.041ZM90.427 208V201.455H91.701V208H90.427ZM91.07 200.445C90.849 200.445 90.658 200.371 90.499 200.223C90.343 200.072 90.265 199.893 90.265 199.686C90.265 199.476 90.343 199.297 90.499 199.149C90.658 198.999 90.849 198.923 91.07 198.923C91.292 198.923 91.481 198.999 91.637 199.149C91.796 199.297 91.876 199.476 91.876 199.686C91.876 199.893 91.796 200.072 91.637 200.223C91.481 200.371 91.292 200.445 91.07 200.445ZM94.689 204.114V208H93.415V201.455H94.638V202.52H94.719C94.87 202.173 95.105 201.895 95.426 201.685C95.75 201.474 96.158 201.369 96.65 201.369C97.096 201.369 97.486 201.463 97.821 201.651C98.157 201.835 98.417 202.111 98.601 202.477C98.786 202.844 98.878 203.297 98.878 203.837V208H97.604V203.99C97.604 203.516 97.48 203.145 97.233 202.878C96.986 202.608 96.647 202.473 96.215 202.473C95.919 202.473 95.657 202.537 95.426 202.665C95.199 202.793 95.019 202.98 94.885 203.227C94.755 203.472 94.689 203.767 94.689 204.114ZM103.331 210.591C102.811 210.591 102.364 210.523 101.989 210.386C101.617 210.25 101.313 210.07 101.077 209.845C100.841 209.621 100.665 209.375 100.549 209.108L101.644 208.656C101.721 208.781 101.823 208.913 101.951 209.053C102.081 209.195 102.257 209.315 102.479 209.415C102.703 209.514 102.992 209.564 103.344 209.564C103.827 209.564 104.226 209.446 104.542 209.21C104.857 208.977 105.015 208.605 105.015 208.094V206.807H104.934C104.857 206.946 104.746 207.101 104.601 207.271C104.459 207.442 104.263 207.589 104.013 207.714C103.763 207.839 103.438 207.902 103.037 207.902C102.52 207.902 102.054 207.781 101.64 207.54C101.228 207.295 100.901 206.936 100.659 206.462C100.421 205.984 100.301 205.398 100.301 204.702C100.301 204.006 100.419 203.409 100.655 202.912C100.894 202.415 101.221 202.034 101.635 201.77C102.05 201.503 102.52 201.369 103.046 201.369C103.452 201.369 103.78 201.438 104.03 201.574C104.28 201.707 104.475 201.864 104.614 202.043C104.756 202.222 104.865 202.379 104.942 202.516H105.036V201.455H106.284V208.145C106.284 208.707 106.154 209.169 105.892 209.53C105.631 209.891 105.277 210.158 104.831 210.331C104.388 210.504 103.888 210.591 103.331 210.591ZM103.319 206.845C103.685 206.845 103.995 206.76 104.248 206.589C104.503 206.416 104.696 206.169 104.827 205.848C104.961 205.524 105.027 205.136 105.027 204.685C105.027 204.244 104.962 203.857 104.831 203.521C104.701 203.186 104.509 202.925 104.256 202.737C104.003 202.547 103.691 202.452 103.319 202.452C102.935 202.452 102.615 202.551 102.36 202.75C102.104 202.946 101.911 203.213 101.78 203.551C101.652 203.889 101.588 204.267 101.588 204.685C101.588 205.114 101.654 205.49 101.784 205.814C101.915 206.138 102.108 206.391 102.364 206.572C102.623 206.754 102.941 206.845 103.319 206.845ZM113.99 208.132C113.345 208.132 112.79 207.994 112.324 207.719C111.861 207.44 111.503 207.05 111.25 206.547C111 206.041 110.875 205.449 110.875 204.77C110.875 204.099 111 203.509 111.25 202.997C111.503 202.486 111.855 202.087 112.307 201.8C112.761 201.513 113.293 201.369 113.901 201.369C114.27 201.369 114.628 201.43 114.974 201.553C115.321 201.675 115.632 201.866 115.908 202.128C116.183 202.389 116.401 202.729 116.56 203.146C116.719 203.561 116.798 204.065 116.798 204.659V205.111H111.595V204.156H115.55C115.55 203.821 115.482 203.524 115.345 203.266C115.209 203.004 115.017 202.798 114.77 202.648C114.526 202.497 114.239 202.422 113.909 202.422C113.551 202.422 113.239 202.51 112.972 202.686C112.707 202.859 112.503 203.087 112.358 203.368C112.216 203.646 112.145 203.949 112.145 204.276V205.021C112.145 205.459 112.222 205.831 112.375 206.138C112.531 206.445 112.749 206.679 113.027 206.841C113.305 207 113.631 207.08 114.003 207.08C114.244 207.08 114.464 207.045 114.663 206.977C114.862 206.906 115.034 206.801 115.179 206.662C115.324 206.523 115.435 206.351 115.511 206.146L116.717 206.364C116.621 206.719 116.447 207.03 116.197 207.297C115.95 207.561 115.639 207.767 115.264 207.915C114.892 208.06 114.467 208.132 113.99 208.132ZM120.117 208.145C119.702 208.145 119.327 208.068 118.992 207.915C118.657 207.759 118.391 207.533 118.195 207.237C118.002 206.942 117.905 206.58 117.905 206.151C117.905 205.781 117.976 205.477 118.118 205.239C118.26 205 118.452 204.811 118.694 204.672C118.935 204.533 119.205 204.428 119.503 204.357C119.801 204.286 120.105 204.232 120.415 204.195C120.807 204.149 121.125 204.112 121.37 204.084C121.614 204.053 121.792 204.003 121.902 203.935C122.013 203.866 122.069 203.756 122.069 203.602V203.572C122.069 203.2 121.963 202.912 121.753 202.707C121.546 202.503 121.236 202.401 120.824 202.401C120.395 202.401 120.057 202.496 119.81 202.686C119.566 202.874 119.397 203.082 119.303 203.312L118.105 203.04C118.248 202.642 118.455 202.321 118.728 202.077C119.003 201.83 119.32 201.651 119.678 201.54C120.036 201.426 120.412 201.369 120.807 201.369C121.069 201.369 121.346 201.401 121.638 201.463C121.934 201.523 122.209 201.634 122.465 201.795C122.723 201.957 122.935 202.189 123.1 202.49C123.265 202.788 123.347 203.176 123.347 203.653V208H122.103V207.105H122.051C121.969 207.27 121.846 207.432 121.681 207.591C121.516 207.75 121.304 207.882 121.046 207.987C120.787 208.092 120.478 208.145 120.117 208.145ZM120.394 207.122C120.746 207.122 121.047 207.053 121.297 206.913C121.55 206.774 121.742 206.592 121.873 206.368C122.006 206.141 122.073 205.898 122.073 205.639V204.795C122.027 204.841 121.939 204.884 121.809 204.923C121.681 204.96 121.534 204.993 121.37 205.021C121.205 205.047 121.044 205.071 120.888 205.094C120.732 205.114 120.601 205.131 120.496 205.145C120.249 205.176 120.023 205.229 119.819 205.303C119.617 205.376 119.455 205.483 119.333 205.622C119.213 205.759 119.154 205.94 119.154 206.168C119.154 206.483 119.27 206.722 119.503 206.884C119.736 207.043 120.033 207.122 120.394 207.122ZM129.949 203.053L128.794 203.257C128.746 203.109 128.669 202.969 128.564 202.835C128.462 202.702 128.322 202.592 128.146 202.507C127.97 202.422 127.75 202.379 127.486 202.379C127.125 202.379 126.824 202.46 126.582 202.622C126.341 202.781 126.22 202.987 126.22 203.24C126.22 203.459 126.301 203.635 126.463 203.768C126.625 203.902 126.886 204.011 127.247 204.097L128.287 204.335C128.889 204.474 129.338 204.689 129.634 204.979C129.929 205.268 130.077 205.645 130.077 206.108C130.077 206.5 129.963 206.849 129.736 207.156C129.511 207.46 129.197 207.699 128.794 207.872C128.393 208.045 127.929 208.132 127.401 208.132C126.668 208.132 126.07 207.976 125.607 207.663C125.143 207.348 124.859 206.901 124.754 206.321L125.986 206.134C126.063 206.455 126.22 206.697 126.459 206.862C126.697 207.024 127.009 207.105 127.392 207.105C127.81 207.105 128.143 207.018 128.393 206.845C128.643 206.669 128.768 206.455 128.768 206.202C128.768 205.997 128.692 205.825 128.538 205.686C128.388 205.547 128.156 205.442 127.844 205.371L126.736 205.128C126.125 204.989 125.673 204.767 125.381 204.463C125.091 204.159 124.946 203.774 124.946 203.308C124.946 202.922 125.054 202.584 125.27 202.294C125.486 202.004 125.784 201.778 126.165 201.616C126.545 201.452 126.982 201.369 127.473 201.369C128.18 201.369 128.737 201.523 129.143 201.83C129.55 202.134 129.818 202.541 129.949 203.053ZM131.478 208V201.455H132.752V208H131.478ZM132.121 200.445C131.9 200.445 131.709 200.371 131.55 200.223C131.394 200.072 131.316 199.893 131.316 199.686C131.316 199.476 131.394 199.297 131.55 199.149C131.709 198.999 131.9 198.923 132.121 198.923C132.343 198.923 132.532 198.999 132.688 199.149C132.847 199.297 132.926 199.476 132.926 199.686C132.926 199.893 132.847 200.072 132.688 200.223C132.532 200.371 132.343 200.445 132.121 200.445ZM137.287 208.132C136.642 208.132 136.087 207.994 135.621 207.719C135.158 207.44 134.8 207.05 134.547 206.547C134.297 206.041 134.172 205.449 134.172 204.77C134.172 204.099 134.297 203.509 134.547 202.997C134.8 202.486 135.152 202.087 135.604 201.8C136.058 201.513 136.589 201.369 137.197 201.369C137.567 201.369 137.925 201.43 138.271 201.553C138.618 201.675 138.929 201.866 139.205 202.128C139.48 202.389 139.697 202.729 139.857 203.146C140.016 203.561 140.095 204.065 140.095 204.659V205.111H134.892V204.156H138.847C138.847 203.821 138.778 203.524 138.642 203.266C138.506 203.004 138.314 202.798 138.067 202.648C137.822 202.497 137.536 202.422 137.206 202.422C136.848 202.422 136.536 202.51 136.268 202.686C136.004 202.859 135.8 203.087 135.655 203.368C135.513 203.646 135.442 203.949 135.442 204.276V205.021C135.442 205.459 135.518 205.831 135.672 206.138C135.828 206.445 136.045 206.679 136.324 206.841C136.602 207 136.928 207.08 137.3 207.08C137.541 207.08 137.761 207.045 137.96 206.977C138.159 206.906 138.331 206.801 138.476 206.662C138.621 206.523 138.732 206.351 138.808 206.146L140.014 206.364C139.918 206.719 139.744 207.03 139.494 207.297C139.247 207.561 138.936 207.767 138.561 207.915C138.189 208.06 137.764 208.132 137.287 208.132ZM141.509 208V201.455H142.74V202.494H142.809C142.928 202.142 143.138 201.865 143.439 201.663C143.743 201.459 144.087 201.357 144.471 201.357C144.55 201.357 144.644 201.359 144.752 201.365C144.863 201.371 144.949 201.378 145.012 201.386V202.605C144.961 202.591 144.87 202.575 144.739 202.558C144.608 202.538 144.478 202.528 144.347 202.528C144.046 202.528 143.777 202.592 143.542 202.72C143.309 202.845 143.124 203.02 142.988 203.244C142.851 203.466 142.783 203.719 142.783 204.003V208H141.509ZM147.721 199.273L147.61 205.49H146.43L146.319 199.273H147.721ZM147.022 208.081C146.786 208.081 146.585 207.999 146.417 207.834C146.249 207.666 146.167 207.464 146.17 207.229C146.167 206.996 146.249 206.797 146.417 206.632C146.585 206.464 146.786 206.381 147.022 206.381C147.252 206.381 147.451 206.464 147.619 206.632C147.786 206.797 147.871 206.996 147.874 207.229C147.871 207.385 147.83 207.528 147.751 207.659C147.674 207.787 147.572 207.889 147.444 207.966C147.316 208.043 147.175 208.081 147.022 208.081Z" fill="white"/>
<defs>
<filter id="filter0_i_19_2" x="0" y="84" width="216" height="218" filterUnits="userSpaceOnUse" color-interpolation-filters="sRGB">
<feFlood flood-opacity="0" result="BackgroundImageFix"/>
<feBlend mode="normal" in="SourceGraphic" in2="BackgroundImageFix" result="shape"/>
<feColorMatrix in="SourceAlpha" type="matrix" values="0 0 0 0 0 0 0 0 0 0 0 0 0 0 0 0 0 0 127 0" result="hardAlpha"/>
<feOffset dy="2"/>
<feGaussianBlur stdDeviation="10"/>
<feComposite in2="hardAlpha" operator="arithmetic" k2="-1" k3="1"/>
<feColorMatrix type="matrix" values="0 0 0 0 0.895278 0 0 0 0 0.888056 0 0 0 0 0.888056 0 0 0 0.08 0"/>
<feBlend mode="normal" in2="shape" result="effect1_innerShadow_19_2"/>
</filter>
<linearGradient id="paint0_linear_19_2" x1="108" y1="232" x2="108" y2="280" gradientUnits="userSpaceOnUse">
<stop stop-color="#FF9701"/>
<stop offset="0.526042" stop-color="#FFBD00"/>
<stop offset="1" stop-color="#FFD501"/>
</linearGradient>
<linearGradient id="paint1_linear_19_2" x1="108.029" y1="61.9357" x2="116.542" y2="43.948" gradientUnits="userSpaceOnUse">
<stop stop-color="#3D4AFF"/>
<stop offset="1" stop-color="#65D9FF"/>
</linearGradient>
<linearGradient id="paint2_linear_19_2" x1="108.021" y1="61.9357" x2="116.542" y2="43.948" gradientUnits="userSpaceOnUse">
<stop stop-color="#3D4AFF"/>
<stop offset="1" stop-color="#65D9FF"/>
</linearGradient>
<linearGradient id="paint3_linear_19_2" x1="84.542" y1="24.758" x2="82.378" y2="20.1242" gradientUnits="userSpaceOnUse">
<stop stop-color="#4DADDC"/>
<stop offset="1" stop-color="#A2DAF6"/>
</linearGradient>
<linearGradient id="paint4_linear_19_2" x1="69.8419" y1="3.99598" x2="69.632" y2="3.13536" gradientUnits="userSpaceOnUse">
<stop stop-color="#4DADDC"/>
<stop offset="1" stop-color="#A2DAF6"/>
</linearGradient>
<linearGradient id="paint5_linear_19_2" x1="109.352" y1="47.5466" x2="108.056" y2="46.0846" gradientUnits="userSpaceOnUse">
<stop stop-color="#4DADDC"/>
<stop offset="1" stop-color="#A2DAF6"/>
</linearGradient>
<linearGradient id="paint6_linear_19_2" x1="71.9274" y1="32.0653" x2="69.7619" y2="27.4295" gradientUnits="userSpaceOnUse">
<stop stop-color="#4DADDC"/>
<stop offset="1" stop-color="#A2DAF6"/>
</linearGradient>
<linearGradient id="paint7_linear_19_2" x1="57.2179" y1="11.3314" x2="57.0078" y2="10.4706" gradientUnits="userSpaceOnUse">
<stop stop-color="#4DADDC"/>
<stop offset="1" stop-color="#A2DAF6"/>
</linearGradient>
<linearGradient id="paint8_linear_19_2" x1="101.437" y1="71.2314" x2="89.859" y2="46.7231" gradientUnits="userSpaceOnUse">
<stop stop-color="#3D4AFF"/>
<stop offset="1" stop-color="#65D9FF"/>
</linearGradient>
<linearGradient id="paint9_linear_19_2" x1="97.897" y1="73.066" x2="30.2697" y2="-0.557348" gradientUnits="userSpaceOnUse">
<stop stop-color="#4F24FF"/>
<stop offset="1" stop-color="#13D9E2"/>
</linearGradient>
<linearGradient id="paint10_linear_19_2" x1="96.449" y1="53.688" x2="97.74" y2="61.3983" gradientUnits="userSpaceOnUse">
<stop stop-color="#1689C2"/>
<stop offset="1" stop-color="#A3DBF7"/>
</linearGradient>
<linearGradient id="paint11_linear_19_2" x1="102.692" y1="64.8846" x2="103.752" y2="68.2165" gradientUnits="userSpaceOnUse">
<stop stop-color="#1689C2"/>
<stop offset="1" stop-color="#A3DBF7"/>
</linearGradient>
<linearGradient id="paint12_linear_19_2" x1="52.0941" y1="69.5307" x2="70.0856" y2="35.5854" gradientUnits="userSpaceOnUse">
<stop stop-color="#4DADDC"/>
<stop offset="1" stop-color="#A2DAF6"/>
</linearGradient>
<linearGradient id="paint13_linear_19_2" x1="52.2679" y1="33.0396" x2="48.0374" y2="36.984" gradientUnits="userSpaceOnUse">
<stop stop-color="#4DADDC"/>
<stop offset="1" stop-color="#A2DAF6"/>
</linearGradient>
<linearGradient id="paint14_linear_19_2" x1="146.182" y1="136.967" x2="146.512" y2="138.834" gradientUnits="userSpaceOnUse">
<stop stop-color="#1689C2"/>
<stop offset="1" stop-color="#A3DBF7"/>
</linearGradient>
<linearGradient id="paint15_linear_19_2" x1="159.801" y1="131.625" x2="159.893" y2="132.602" gradientUnits="userSpaceOnUse">
<stop stop-color="#1689C2"/>
<stop offset="1" stop-color="#A3DBF7"/>
</linearGradient>
<linearGradient id="paint16_linear_19_2" x1="163.348" y1="57.7606" x2="163.137" y2="56.9283" gradientUnits="userSpaceOnUse">
<stop stop-color="#4DADDC"/>
<stop offset="1" stop-color="#A2DAF6"/>
</linearGradient>
<linearGradient id="paint17_linear_19_2" x1="174.844" y1="114.3" x2="178.178" y2="123.651" gradientUnits="userSpaceOnUse">
<stop stop-color="#1689C2"/>
<stop offset="1" stop-color="#A3DBF7"/>
</linearGradient>
<linearGradient id="paint18_linear_19_2" x1="162.603" y1="87.7064" x2="158.847" y2="83.9376" gradientUnits="userSpaceOnUse">
<stop stop-color="#4DADDC"/>
<stop offset="1" stop-color="#A2DAF6"/>
</linearGradient>
</defs>
</svg>
