<svg width="24" height="24" viewBox="0 0 24 24" fill="none" xmlns="http://www.w3.org/2000/svg">
<path fill-rule="evenodd" clip-rule="evenodd" d="M20.8538 5.98409C21.2132 5.69658 21.2715 5.17217 20.984 4.81278C20.6965 4.4534 20.172 4.39513 19.8126 4.68264L15.8389 7.86168C15.7749 7.91283 15.7038 7.95428 15.6278 7.98469L12.1504 9.37562C12.0003 9.43567 11.836 9.45075 11.6775 9.41905L8.48248 8.78004C8.00694 8.68493 7.514 8.73019 7.06372 8.91031L3.35707 10.393C2.92975 10.5639 2.7219 11.0488 2.89283 11.4762C3.06376 11.9035 3.54873 12.1113 3.97605 11.9404L7.6827 10.4577C7.8328 10.3977 7.99711 10.3827 8.15563 10.4143L11.3506 11.0533C11.8262 11.1484 12.3191 11.1032 12.7694 10.9231L16.2467 9.53215C16.4748 9.44092 16.6882 9.31658 16.88 9.16313L20.8538 5.98409ZM19.4999 8.66667C19.4999 8.20643 19.873 7.83333 20.3332 7.83333C20.7935 7.83333 21.1665 8.20643 21.1665 8.66667V18.6667C21.1665 19.1269 20.7935 19.5 20.3332 19.5C19.873 19.5 19.4999 19.1269 19.4999 18.6667V8.66667ZM16.1665 11.1667C15.7063 11.1667 15.3332 11.5397 15.3332 12V18.6667C15.3332 19.1269 15.7063 19.5 16.1665 19.5C16.6268 19.5 16.9999 19.1269 16.9999 18.6667V12C16.9999 11.5397 16.6268 11.1667 16.1665 11.1667ZM6.99988 12.8333C6.99988 12.3731 7.37298 12 7.83321 12C8.29344 12 8.66654 12.3731 8.66654 12.8333V18.6667C8.66654 19.1269 8.29344 19.5 7.83321 19.5C7.37298 19.5 6.99988 19.1269 6.99988 18.6667V12.8333ZM3.66654 13.6667C3.20631 13.6667 2.83321 14.0397 2.83321 14.5V18.6667C2.83321 19.1269 3.20631 19.5 3.66654 19.5C4.12678 19.5 4.49988 19.1269 4.49988 18.6667V14.5C4.49988 14.0397 4.12678 13.6667 3.66654 13.6667ZM11.9999 12.8333C11.5396 12.8333 11.1665 13.2064 11.1665 13.6667V18.6667C11.1665 19.1269 11.5396 19.5 11.9999 19.5C12.4601 19.5 12.8332 19.1269 12.8332 18.6667V13.6667C12.8332 13.2064 12.4601 12.8333 11.9999 12.8333Z" fill="#1B1C20"/>
</svg>
