<svg width="595" height="669" viewBox="0 0 595 669" fill="none" xmlns="http://www.w3.org/2000/svg">
<rect width="595" height="669" fill="#F7F0E4"/>
<g style="mix-blend-mode:overlay">
<path d="M251.922 522.56L449.082 405.454C452.909 403.186 456.008 397.09 456.008 391.842L456.129 212.564C456.129 207.369 453.047 204.91 449.204 207.178L252.06 324.284C248.251 326.553 245.135 332.649 245.135 337.896L245.014 511.892C245.014 517.139 248.113 524.829 251.922 522.56Z" fill="#092237"/>
</g>
<g style="mix-blend-mode:overlay">
<path d="M1.93905 668.881L57.0117 636.254C57.6061 635.815 58.0906 635.244 58.427 634.586C58.7635 633.928 58.9428 633.2 58.9508 632.461V582.377C58.9508 580.905 58.0852 580.23 57.0117 580.87L1.93905 613.584C1.35043 614.029 0.870161 614.601 0.534322 615.258C0.198483 615.915 0.0158155 616.64 0 617.377V665.989C0 667.427 0.865642 669.522 1.93905 668.881Z" fill="#092237"/>
</g>
<g style="mix-blend-mode:overlay">
<path d="M405.142 271.1L497.143 216.444C498.129 215.704 498.932 214.748 499.491 213.649C500.049 212.55 500.348 211.338 500.364 210.105V126.441C500.364 123.999 498.927 122.873 497.143 123.93L405.159 178.569C404.169 179.309 403.362 180.267 402.8 181.369C402.239 182.471 401.939 183.688 401.922 184.924V266.112C401.922 268.571 403.359 272.156 405.142 271.1Z" fill="#092237"/>
</g>
<path d="M535.213 487.473L535.023 452.179L500.553 452.005L319.407 347.04C292.381 331.367 245.116 333.185 213.797 351.231L46.7092 447.33C45.3415 448.126 44.043 448.94 42.7965 449.754L20.809 449.65V482.295C21.0167 492.011 27.007 501.258 39.005 508.272L236.598 622.85C263.641 638.436 310.906 636.704 342.208 618.658L509.278 522.56C526.591 512.55 535.438 499.682 535.248 487.525L535.213 487.473Z" fill="#9FD7F2"/>
<path d="M236.653 590.083L39.0591 475.524C11.9989 459.851 15.4615 432.557 46.7461 414.581L213.834 318.465C245.119 300.489 292.383 298.601 319.443 314.274L517.037 428.851C544.08 444.437 540.635 471.818 509.35 489.811L342.279 585.91C310.96 603.886 263.696 605.774 236.653 590.083Z" fill="#CFEEFD"/>
<path d="M365.185 134.649L320.293 108.672C319.084 107.829 317.68 107.308 316.213 107.16C314.747 107.011 313.267 107.24 311.913 107.824V107.824H311.809L129.85 212.702L191.951 449.096L372.976 344.736C376.023 343.282 378.014 339.437 378.014 333.843L378.326 159.899C378.343 150.184 372.457 138.875 365.185 134.649Z" fill="url(#paint0_linear_5_220)"/>
<path d="M183.4 448.282L138.507 422.305C131.218 418.079 125.332 406.718 125.349 397.037L125.644 223.111C125.644 213.378 131.582 208.91 138.871 213.135L183.781 239.113C191.052 243.338 196.956 254.699 196.938 264.38L196.627 438.307C196.679 448.057 190.758 452.507 183.4 448.282Z" fill="#7ABBDB"/>
<path d="M174.448 427.725L145.726 411.117C141.052 408.416 137.277 401.177 137.295 394.942L137.398 239.529C137.398 233.294 141.19 230.437 145.865 233.138L174.587 249.816C179.261 252.517 183.018 259.756 183.018 265.973L182.914 421.404C182.897 427.57 179.123 430.427 174.448 427.725Z" fill="#C0EAFF"/>
<path d="M159.715 403.757C155.057 401.055 151.283 393.816 151.3 387.582L151.387 236.325L145.864 233.121C141.207 230.419 137.415 233.277 137.415 239.511L137.312 394.925C137.312 401.159 141.068 408.398 145.726 411.1L174.465 427.76C179.122 430.462 182.914 427.604 182.931 421.387V417.213L159.715 403.757Z" fill="url(#paint1_linear_5_220)"/>
<g style="mix-blend-mode:overlay">
<path d="M157.102 437.908L128.38 421.248C123.705 418.547 119.931 411.308 119.949 405.073L120.052 249.659C120.052 243.425 123.844 240.567 128.518 243.269L157.241 259.946C161.915 262.648 165.672 269.887 165.672 276.104L165.568 431.535C165.551 437.752 161.777 440.558 157.102 437.908Z" fill="#A3DBF7"/>
</g>
<g style="mix-blend-mode:overlay">
<g style="mix-blend-mode:overlay">
<path d="M147.493 450.499C145.84 450.456 144.228 449.978 142.819 449.113L114.148 432.453C108.677 429.284 104.418 421.196 104.418 414.026L104.522 258.613C104.522 254.387 106.081 251.08 108.764 249.521C110.034 248.858 111.459 248.552 112.888 248.634C114.318 248.716 115.699 249.184 116.884 249.988L145.623 266.649C151.077 269.818 155.353 277.905 155.336 285.075L155.18 440.558C155.18 444.801 153.639 448.109 150.956 449.65C149.895 450.23 148.702 450.523 147.493 450.499ZM112.175 253.816C111.866 253.811 111.561 253.888 111.292 254.041C110.513 254.491 109.664 255.929 109.664 258.613L109.56 414.044C109.56 419.343 112.815 425.716 116.693 427.898L145.433 444.558C145.849 444.862 146.332 445.062 146.841 445.14C147.35 445.218 147.871 445.173 148.359 445.009C149.138 444.558 149.986 443.104 149.986 440.419L150.09 284.989C150.09 279.689 146.835 273.316 142.957 271.134L114.235 254.474C113.614 254.086 112.905 253.86 112.175 253.816V253.816Z" fill="#092330"/>
</g>
</g>
<g style="mix-blend-mode:overlay">
<g style="mix-blend-mode:overlay">
<path d="M84.3703 486.59C82.7171 486.55 81.1041 486.072 79.6958 485.204L50.9562 468.544C45.5026 465.375 41.2263 457.287 41.2436 450.118L41.3475 294.704C41.3475 290.479 42.8883 287.171 45.5892 285.612C46.8587 284.949 48.284 284.643 49.7136 284.725C51.1432 284.808 52.5239 285.276 53.709 286.08L82.4313 302.74C87.9022 305.909 92.1785 313.997 92.1612 321.166L92.0573 476.58C92.0573 480.823 90.5165 484.131 87.8156 485.672C86.767 486.273 85.5792 486.59 84.3703 486.59ZM49.0518 289.89C48.7452 289.889 48.4428 289.96 48.1688 290.097C47.3898 290.565 46.5414 292.003 46.5414 294.687L46.4375 450.118C46.4375 455.417 49.6924 461.79 53.5705 463.972L82.2928 480.632C82.7116 480.938 83.1974 481.138 83.7096 481.216C84.2217 481.294 84.7452 481.249 85.236 481.083C86.0151 480.632 86.8634 479.195 86.8634 476.493L86.9673 321.062C86.9673 315.763 83.7124 309.39 79.8343 307.208L51.0947 290.548C50.4811 290.158 49.7778 289.931 49.0518 289.89V289.89Z" fill="#092330"/>
</g>
</g>
<g style="mix-blend-mode:overlay">
<g style="mix-blend-mode:overlay">
<path d="M340.427 265.904V257.245L335.857 259.929L333.606 261.228V269.887L326.404 274.044V265.384L319.738 269.212V206.07L326.404 202.225V193.566L333.606 189.409V198.069L338.679 195.142L340.41 194.189V185.53L347.612 181.374V190.76C349.031 190.302 350.557 190.302 351.975 190.76C353.547 191.322 354.85 192.453 355.628 193.93C356.682 195.944 357.179 198.205 357.065 200.476C357.057 203.616 356.47 206.727 355.334 209.654C354.21 212.699 352.563 215.523 350.469 218.002C351.647 217.665 352.896 217.665 354.074 218.002C355.252 218.339 356.312 218.998 357.134 219.907C358.853 222.27 359.675 225.167 359.454 228.081C359.412 231.221 358.905 234.338 357.948 237.329C357.005 240.48 355.611 243.478 353.81 246.23C352.154 248.751 350.068 250.961 347.647 252.759V261.8L340.427 265.904ZM329.347 236.203V253.106L338.194 247.91C340.479 246.679 342.672 245.284 344.756 243.737C346.226 242.501 347.408 240.958 348.218 239.217C349.134 237.298 349.596 235.194 349.569 233.069C349.676 231.586 349.312 230.107 348.53 228.843C348.19 228.388 347.728 228.038 347.199 227.833C346.669 227.628 346.093 227.576 345.535 227.683C342.533 228.589 339.681 229.931 337.069 231.666L329.347 236.203ZM329.347 211.092V225.691L335.614 222.089C339.337 219.941 341.657 218.521 342.54 217.863C344.158 216.69 345.48 215.154 346.4 213.378C347.342 211.608 347.829 209.633 347.82 207.628C347.899 206.906 347.832 206.175 347.624 205.479C347.416 204.783 347.071 204.136 346.608 203.576C345.794 202.814 344.6 202.762 343.007 203.437C342.061 203.83 339.337 205.325 334.835 207.923L329.347 211.092Z" fill="#7AEFFF"/>
</g>
</g>
<path d="M172.733 151.698V140.649H161.93L105.178 107.745C96.712 102.843 81.892 103.432 72.0929 109.061L19.7556 139.177C19.3228 139.42 18.9246 139.679 18.5264 139.922H11.6012V150.174C11.6012 153.222 13.5403 156.114 17.2972 158.296L79.2085 194.076C87.6746 198.994 102.477 198.405 112.276 192.76L164.631 162.661C170.067 159.526 172.82 155.491 172.733 151.681V151.698Z" fill="#9FD7F2"/>
<path d="M79.2061 183.84L17.2948 147.957C8.82871 143.039 9.90209 134.484 19.7013 128.907L71.9693 98.8255C81.7684 93.1971 96.5883 92.6082 105.054 97.5266L166.966 133.41C175.432 138.328 174.358 146.883 164.559 152.46L112.205 182.576C102.475 188.17 87.6722 188.759 79.2061 183.84Z" fill="#CFEEFD"/>
<g style="mix-blend-mode:overlay">
<path d="M79.2061 169.536L17.2948 133.653C8.82871 128.734 9.90209 120.179 19.7013 114.602L71.9693 84.4342C81.7684 78.8058 96.5883 78.217 105.054 83.118L166.966 119.019C175.432 123.937 174.358 132.475 164.559 138.069L112.205 168.168C102.475 173.865 87.6722 174.454 79.2061 169.536Z" fill="#4EADDD"/>
</g>
<path d="M91.6191 159.976L68.5581 146.883V133.289L91.6363 146.381L91.6191 159.976Z" fill="#FF8A01"/>
<path d="M113.764 147.213L91.638 134.847L113.764 133.549V147.213Z" fill="#FF8A01"/>
<path d="M96.2428 100.263L96.2255 126.933L120.723 118.395L135.959 93.8207L121.935 82.3041L96.2428 100.263Z" fill="#D68817"/>
<path d="M96.2768 60.6043L96.2595 83.6721L125.449 70.5795L130.158 47.7715L116.1 44.4117L96.2768 60.6043Z" fill="#D68817"/>
<path d="M58.1199 39.6319L68.6289 33.5706L91.6899 46.6631L81.1809 52.7245L58.1199 39.6319Z" fill="#FFD501"/>
<path d="M113.836 33.9517L90.7754 20.8591L80.0068 27.0071L103.068 40.0996L113.836 33.9517Z" fill="#FFD501"/>
<path d="M132.099 28.4617L110.077 15.8021L103.082 23.2316L126.749 33.051L132.099 28.4617Z" fill="#FFD501"/>
<path d="M68.6302 19.9585L91.7085 33.051L91.6912 46.6631L68.6302 33.5706V19.9585Z" fill="#FF8A01"/>
<path d="M90.7719 7.19498L113.85 20.2875L113.833 33.9516L90.7719 20.859V7.19498Z" fill="#FF8A01"/>
<path d="M102.147 0.631332L125.225 13.7239L113.85 20.2875L90.7719 7.19493L102.147 0.631332Z" fill="#FFD501"/>
<path d="M80.0049 13.3947L103.083 26.4873L91.7085 33.0509L68.6302 19.9583L80.0049 13.3947Z" fill="#FFD501"/>
<path d="M113.765 147.213V133.549C111.635 134.83 109.229 136.233 106.58 137.757L103.013 139.818V153.43L91.6387 159.976V146.381L81.1298 152.443V52.7245L91.6387 46.6632V33.0164L103.135 26.4875V40.0996L111.151 35.4756C112.103 34.9388 113.02 34.4192 113.903 33.9516V20.2876L125.278 13.724V28.5483C127.52 27.7955 129.943 27.7652 132.203 28.4618C134.679 29.3571 136.734 31.1409 137.968 33.4667C139.643 36.6646 140.432 40.2521 140.254 43.8576C140.195 48.8218 139.233 53.7338 137.414 58.353C135.632 63.1621 133.031 67.6267 129.727 71.5494C134.275 70.7066 137.778 71.6995 140.236 74.5282C142.695 77.3568 143.913 81.6633 143.889 87.4475C143.82 92.4041 143.021 97.3233 141.518 102.047C140.002 107.039 137.775 111.787 134.904 116.144C132.291 120.16 128.985 123.678 125.139 126.535V140.822L113.765 147.213ZM96.2094 100.263V126.933L110.198 118.863C113.811 116.916 117.282 114.717 120.586 112.282C122.918 110.337 124.792 107.9 126.074 105.147C127.508 102.116 128.236 98.8007 128.204 95.4485C128.371 93.1106 127.802 90.779 126.576 88.781C126.041 88.0607 125.314 87.5062 124.478 87.1815C123.642 86.8567 122.731 86.7748 121.85 86.9453C119.79 87.1704 115.34 89.2659 108.467 93.2318L96.2094 100.263ZM96.2094 60.6043V83.6722L106.112 77.9572C111.982 74.4935 115.652 72.3461 117.072 71.2896C119.646 69.4305 121.756 67.0002 123.235 64.1892C124.701 61.396 125.462 58.2865 125.451 55.1318C125.451 52.0318 124.81 49.9363 123.547 48.7067C122.283 47.4771 120.378 47.4425 117.851 48.4816C116.362 49.1224 112.051 51.495 104.952 55.582L96.2094 60.6043Z" fill="#FFC100"/>
<path d="M58.1233 39.6319L81.1843 52.7244L81.115 152.443L58.0541 139.35L58.1233 39.6319Z" fill="#FF8A01"/>
<path d="M594.128 494.952C592.5 488.164 583.359 484.128 583.359 484.128L573.871 479.262L544.439 501.048C521.205 510.435 483.844 526.212 480.018 528.757C474.599 532.36 438.466 567.862 430.866 575.239C423.266 582.617 417.535 591.761 415.284 593.51C413.034 595.259 413.761 594.237 408.601 602.169C407.597 603.693 406.87 604.871 406.299 605.823H377.888C378.238 603.991 378.107 602.1 377.507 600.333C374.91 594.948 359.259 578.668 348.075 577.958C344.076 577.699 338.241 577.023 332.182 576.365L298.491 556.865L283.982 563.273C280.311 567.12 278.196 572.192 278.044 577.508C278.044 584.435 280.658 588.522 285.956 591.501C291.254 594.48 296.725 596.991 296.725 596.991L352.767 625.098L366.462 631.697C370.581 633.688 375.131 634.621 379.701 634.413C384.272 634.204 388.718 632.86 392.639 630.502L414.297 617.461L582.234 516.669C584.7 515.005 587.064 513.195 589.315 511.249C594.266 507.144 595.859 501.724 594.128 494.952Z" fill="#4EADDD"/>
<path d="M287.134 560.675L477.231 446.531C481.218 444.135 485.739 442.771 490.385 442.562C495.031 442.354 499.656 443.307 503.841 445.336L581.438 482.899C583.248 483.774 584.788 485.123 585.894 486.802C587 488.481 587.632 490.429 587.723 492.438C587.813 494.447 587.359 496.443 586.408 498.215C585.457 499.987 584.045 501.468 582.321 502.503L393.297 616.162C389.375 618.516 384.929 619.857 380.36 620.066C375.79 620.275 371.241 619.344 367.12 617.357L289.558 579.933C279.655 574.72 279.984 564.935 287.134 560.675Z" fill="#C0EAFF"/>
<path d="M296.983 562.06L394.161 608.231C394.912 608.588 395.739 608.754 396.57 608.715C397.4 608.675 398.208 608.432 398.922 608.005L573.126 504.096C573.366 503.93 573.561 503.706 573.692 503.444C573.822 503.182 573.884 502.892 573.872 502.599C573.86 502.307 573.774 502.023 573.622 501.773C573.471 501.523 573.258 501.315 573.005 501.169L476.052 453.995C475.372 453.661 474.62 453.504 473.863 453.537C473.107 453.57 472.371 453.793 471.723 454.185L296.862 559.359C296.621 559.498 296.422 559.701 296.288 559.946C296.154 560.191 296.09 560.468 296.103 560.746C296.115 561.025 296.204 561.295 296.359 561.526C296.514 561.758 296.73 561.943 296.983 562.06V562.06Z" fill="#DEF4FF"/>
<path d="M296.675 561.472L471.536 456.298C472.187 455.906 472.926 455.684 473.685 455.65C474.444 455.617 475.199 455.774 475.882 456.108L572.835 503.3C573.029 503.386 573.201 503.517 573.337 503.681C573.501 503.484 573.62 503.253 573.684 503.005C573.748 502.757 573.757 502.498 573.709 502.246C573.661 501.994 573.557 501.756 573.406 501.549C573.255 501.342 573.06 501.171 572.835 501.048L475.882 453.856C475.199 453.523 474.444 453.366 473.685 453.399C472.926 453.432 472.187 453.655 471.536 454.047L296.675 559.22C296.469 559.342 296.296 559.511 296.168 559.712C296.039 559.914 295.96 560.142 295.937 560.38C295.913 560.618 295.946 560.857 296.032 561.08C296.118 561.303 296.255 561.502 296.432 561.662C296.502 561.585 296.584 561.521 296.675 561.472V561.472Z" fill="#4EADDD"/>
<path d="M430.642 598.065C430.163 597.95 429.659 598.011 429.222 598.238V598.238L414.316 607.209C413.536 607.71 412.978 608.491 412.757 609.391C412.476 610.068 412.469 610.827 412.737 611.509C413.005 612.191 413.528 612.742 414.194 613.045C414.654 613.158 415.139 613.102 415.562 612.889V612.889L415.683 612.803L430.313 604.005C430.746 603.772 431.124 603.449 431.423 603.058C431.721 602.666 431.933 602.216 432.044 601.737C432.324 601.061 432.335 600.304 432.074 599.621C431.813 598.938 431.301 598.381 430.642 598.065V598.065Z" fill="#828282"/>
<path d="M431.282 598.498C430.809 598.382 430.31 598.444 429.88 598.671V598.671L414.956 607.642C414.178 608.144 413.62 608.925 413.398 609.824C413.121 610.501 413.116 611.259 413.383 611.94C413.651 612.62 414.171 613.171 414.835 613.478C415.295 613.591 415.78 613.535 416.202 613.322V613.322H416.341L430.953 604.525C431.388 604.289 431.768 603.964 432.066 603.569C432.365 603.175 432.576 602.721 432.684 602.239C432.99 601.556 433.015 600.78 432.752 600.08C432.489 599.38 431.961 598.811 431.282 598.498V598.498Z" fill="#C0EAFF"/>
<path d="M330.053 586.912L330.486 586.635C330.752 586.491 331.049 586.416 331.351 586.416C331.654 586.416 331.951 586.491 332.217 586.635L346.933 593.753C346.994 593.798 347.043 593.857 347.078 593.924C347.112 593.992 347.129 594.067 347.129 594.142C347.129 594.218 347.112 594.293 347.078 594.361C347.043 594.428 346.994 594.487 346.933 594.532L346.518 594.809C346.267 594.943 345.988 595.012 345.704 595.012C345.42 595.012 345.141 594.943 344.89 594.809L330.157 587.882C330.054 587.856 329.961 587.799 329.891 587.719C329.821 587.639 329.778 587.539 329.767 587.433C329.755 587.328 329.777 587.221 329.828 587.128C329.879 587.034 329.958 586.959 330.053 586.912V586.912Z" fill="#4EADDD"/>
<path d="M329.24 585.509C329.24 586.012 328.599 586.393 327.802 586.393C327.006 586.393 326.365 586.012 326.365 585.509C326.365 585.007 327.006 584.644 327.802 584.644C328.599 584.644 329.24 585.025 329.24 585.509Z" fill="#4EADDD"/>
<path d="M535.076 475.4L522.229 469.2C521.312 468.75 521.416 467.884 522.437 467.261L528.358 463.658C528.876 463.354 529.455 463.167 530.053 463.111C530.651 463.054 531.255 463.128 531.821 463.329L544.667 469.529C545.567 469.962 545.481 470.828 544.442 471.452L538.521 475.054C538.005 475.356 537.431 475.543 536.836 475.603C536.241 475.663 535.641 475.594 535.076 475.4V475.4Z" fill="#4EADDD"/>
<path d="M522.434 468.456L528.355 464.853C528.875 464.554 529.453 464.369 530.051 464.313C530.648 464.256 531.251 464.328 531.818 464.524L544.664 470.724C544.796 470.787 544.914 470.875 545.01 470.984C545.12 470.88 545.2 470.748 545.243 470.603C545.285 470.458 545.289 470.304 545.254 470.157C545.219 470.01 545.147 469.875 545.043 469.765C544.939 469.654 544.809 469.573 544.664 469.529L531.8 463.329C531.234 463.128 530.631 463.054 530.033 463.111C529.435 463.167 528.856 463.354 528.338 463.658L522.417 467.261C521.568 467.78 521.361 468.473 521.845 468.993C522.009 468.781 522.209 468.6 522.434 468.456Z" fill="#4EADDD"/>
<g style="mix-blend-mode:overlay">
<path d="M294.824 543.565L392.002 589.718C392.753 590.076 393.581 590.243 394.411 590.204C395.242 590.165 396.05 589.92 396.764 589.492L570.967 485.583C571.208 485.417 571.402 485.193 571.533 484.931C571.663 484.669 571.725 484.379 571.713 484.086C571.701 483.794 571.615 483.51 571.464 483.26C571.312 483.01 571.099 482.802 570.846 482.656L473.893 435.482C473.21 435.148 472.455 434.991 471.696 435.024C470.937 435.058 470.198 435.28 469.547 435.672L294.617 540.88C294.383 541.028 294.194 541.238 294.07 541.485C293.947 541.732 293.892 542.009 293.914 542.285C293.935 542.561 294.031 542.826 294.192 543.051C294.352 543.277 294.571 543.454 294.824 543.565V543.565Z" fill="#02141E"/>
</g>
<path d="M429.395 553.765L398.526 536.239L398.543 518.038L429.395 535.564V553.765Z" fill="#FF8A01"/>
<path d="M459.017 536.672L429.394 520.133L459.017 518.384V536.672Z" fill="#FF8A01"/>
<path d="M435.574 473.859L435.557 509.534L468.331 498.139L488.708 465.252L469.941 449.838L435.574 473.859Z" fill="#D68817"/>
<path d="M435.61 420.813L435.593 451.674L474.651 434.148L480.936 403.651L462.134 399.131L435.61 420.813Z" fill="#D68817"/>
<path d="M384.57 392.758L398.628 384.636L429.48 402.162L415.422 410.267L384.57 392.758Z" fill="#FFD501"/>
<path d="M459.101 385.155L428.249 367.646L413.844 375.873L444.696 393.381L459.101 385.155Z" fill="#FFD501"/>
<path d="M483.531 377.812L454.064 360.892L444.715 370.816L476.381 383.96L483.531 377.812Z" fill="#FFD501"/>
<path d="M398.647 366.434L429.499 383.96L429.481 402.162L398.63 384.636L398.647 366.434Z" fill="#FF8A01"/>
<path d="M428.27 349.358L459.121 366.867L459.104 385.155L428.252 367.646L428.27 349.358Z" fill="#FF8A01"/>
<path d="M443.487 340.578L474.339 358.104L459.121 366.867L428.269 349.358L443.487 340.578Z" fill="#FFD501"/>
<path d="M413.865 357.671L444.717 375.18L429.498 383.96L398.647 366.434L413.865 357.671Z" fill="#FFD501"/>
<path d="M459.087 536.672V518.384C456.23 520.116 453.01 521.986 449.461 524.03L444.613 526.835V545.037L429.395 553.817V535.494L415.337 543.599V410.249L429.481 402.144V383.96L444.7 375.18V393.381L455.416 387.199C456.697 386.471 457.927 385.796 459.104 385.155V366.867L474.322 358.104V377.899C477.306 376.909 480.523 376.866 483.533 377.777C486.849 378.968 489.598 381.36 491.237 384.48C493.474 388.742 494.532 393.525 494.301 398.334C494.226 404.976 492.941 411.549 490.51 417.731C488.119 424.164 484.64 430.14 480.226 435.395C486.32 434.241 491.006 435.568 494.284 439.378C497.562 443.188 499.195 448.961 499.184 456.696C499.079 463.323 498.006 469.899 495.998 476.214C494.032 482.867 491.117 489.202 487.342 495.022C483.859 500.382 479.443 505.075 474.305 508.876V527.926L459.087 536.672ZM435.645 473.859V509.517L454.343 498.745C459.165 496.142 463.793 493.196 468.193 489.93C471.316 487.325 473.823 484.06 475.534 480.37C477.453 476.324 478.43 471.895 478.391 467.416C478.62 464.282 477.856 461.156 476.209 458.48C475.491 457.52 474.519 456.78 473.402 456.346C472.284 455.911 471.068 455.798 469.89 456.021C467.143 456.333 461.17 459.138 451.971 464.438L435.645 473.859ZM435.645 420.813V451.674L448.889 444.037C456.749 439.5 461.637 436.527 463.553 435.118C466.972 432.626 469.768 429.378 471.725 425.628C473.688 421.89 474.705 417.727 474.686 413.505C474.686 409.383 473.837 406.578 472.141 404.846C470.444 403.114 467.899 403.114 464.54 404.551C462.532 405.406 456.761 408.575 447.227 414.059L435.645 420.813Z" fill="#FFC100"/>
<path d="M384.572 392.758L415.423 410.266L415.337 543.668L384.485 526.16L384.572 392.758Z" fill="#FF8A01"/>
<defs>
<linearGradient id="paint0_linear_5_220" x1="245.485" y1="233.024" x2="232.941" y2="211.656" gradientUnits="userSpaceOnUse">
<stop stop-color="#4DADDC"/>
<stop offset="1" stop-color="#A2DAF6"/>
</linearGradient>
<linearGradient id="paint1_linear_5_220" x1="176.768" y1="367.778" x2="187.427" y2="383.943" gradientUnits="userSpaceOnUse">
<stop stop-color="#1689C2"/>
<stop offset="1" stop-color="#A3DBF7"/>
</linearGradient>
</defs>
</svg>
