<svg width="520" height="746" viewBox="0 0 520 746" fill="none" xmlns="http://www.w3.org/2000/svg">
<path d="M483.577 314.199L488.095 307.719L476.509 300.814C476.039 300.477 475.542 300.179 475.022 299.924L474.771 299.77C470.909 298.009 466.179 298.416 460.984 301.51C457.831 303.477 455.009 305.931 452.623 308.783L444.899 304.18C444.415 303.849 443.912 303.545 443.393 303.271C438.392 300.698 432.02 301.143 425.087 305.205C409.369 314.586 396.818 339.384 397.069 360.603C397.089 362.368 397.211 364.132 397.436 365.883C388.197 375.13 382.919 387.619 382.722 400.7C382.722 408.05 385.097 413.37 388.727 416.058C389.237 416.435 389.78 416.765 390.349 417.045L401.8 423.873L412.381 412.267L411.744 410.333L477.146 372.498C488.578 365.67 497.692 347.662 497.499 332.246C497.402 320.215 491.59 313.348 483.577 314.199Z" fill="#FFE6A7"/>
<path d="M452.623 308.803C455.009 305.951 457.831 303.496 460.984 301.53C466.179 298.435 470.948 298.029 474.771 299.789L475.022 299.944C475.542 300.198 476.039 300.496 476.509 300.833L488.095 307.739L484.465 312.961L463.958 318.996L452.623 308.803Z" fill="#FFE092"/>
<path d="M390.388 417.064C389.82 416.791 389.277 416.467 388.766 416.097C385.136 413.408 382.857 408.07 382.761 400.739C382.958 387.658 388.236 375.169 397.475 365.922L410.683 373.833L408.925 416.116L401.839 423.853L390.388 417.064Z" fill="url(#paint0_linear_453_10788)"/>
<path d="M496.457 322.052C494.796 308.377 485.412 302.71 474.193 309.364C470.211 311.867 466.738 315.102 463.958 318.9C459.092 309.228 449.399 306.501 438.334 313.097C422.674 322.536 410.065 347.353 410.316 368.475C410.335 370.241 410.458 372.004 410.683 373.756C401.444 383.002 396.166 395.492 395.969 408.573C396.143 423.273 405.122 429.85 416.032 423.409L490.394 380.39C501.825 373.582 510.939 355.554 510.746 340.138C510.611 327.952 504.644 321.047 496.457 322.052Z" fill="#FFD56A"/>
<g style="mix-blend-mode:overlay">
<path style="mix-blend-mode:overlay" d="M390.389 417.064C389.815 416.791 389.265 416.467 388.748 416.097C385.137 413.408 382.955 408.07 382.762 400.739C382.954 387.661 388.225 375.172 397.456 365.922L410.664 373.833L408.907 416.116L401.84 423.853L390.389 417.064Z" fill="url(#paint1_linear_453_10788)"/>
</g>
<path d="M519.994 608.577L519.82 575.443L487.438 575.288L317.242 476.388C291.849 461.63 247.437 463.409 218.047 480.257L61.0781 570.665C59.7843 571.419 58.5678 572.174 57.3899 572.947L36.7285 572.851V603.625C36.9409 612.755 42.5214 621.478 53.8369 628.016L239.5 735.988C264.893 750.746 309.305 748.967 338.695 732.119L495.664 641.711C512 632.291 520.245 620.183 519.994 608.828V608.577Z" fill="#9FD7F2"/>
<path d="M239.501 705.039L53.857 597.339C28.4647 582.58 31.6894 556.912 61.0789 539.968L217.99 449.56C247.38 432.635 291.792 430.855 317.184 445.691L502.828 553.489C528.221 568.228 524.996 593.915 495.607 610.84L338.695 701.171C309.306 718.115 264.893 719.875 239.501 705.039Z" fill="#CFEEFD"/>
<path d="M282.37 380.777L253 363.716C252.21 363.161 251.291 362.817 250.331 362.719C249.371 362.621 248.402 362.771 247.516 363.156L128.433 431.9L169.08 586.816L287.506 518.459C289.437 517.511 290.789 514.996 290.808 511.321L291.002 397.334C291.002 390.97 287.14 383.543 282.37 380.777Z" fill="url(#paint2_linear_453_10788)"/>
<path d="M163.46 586.332L134.09 569.272C129.32 566.487 125.458 559.078 125.478 552.715L125.671 438.728C125.671 432.345 129.533 429.424 134.322 432.19L163.711 449.25C168.48 452.016 172.342 459.444 172.323 465.808L172.13 579.794C172.111 586.178 168.229 589.098 163.46 586.332Z" fill="#7ABBDB"/>
<path d="M157.569 572.85L138.82 561.902C137.138 560.691 135.764 559.1 134.808 557.259C133.852 555.418 133.341 553.378 133.316 551.302V449.443C133.316 445.362 135.807 443.486 138.858 445.265L157.666 456.175C159.345 457.39 160.716 458.981 161.672 460.821C162.627 462.662 163.14 464.7 163.169 466.775V568.634C163.092 572.754 160.62 574.63 157.569 572.85Z" fill="#C0EAFF"/>
<path d="M147.935 557.144C146.253 555.931 144.878 554.341 143.919 552.5C142.96 550.66 142.444 548.62 142.413 546.544V447.413L138.821 445.324C135.77 443.544 133.299 445.42 133.279 449.502V551.361C133.319 553.429 133.84 555.459 134.803 557.29C135.765 559.12 137.141 560.7 138.821 561.902L157.61 572.812C160.661 574.591 163.152 572.715 163.152 568.634V565.964L147.935 557.144Z" fill="url(#paint3_linear_453_10788)"/>
<path d="M346.633 417.586L317.263 400.526C316.475 399.965 315.556 399.618 314.595 399.52C313.634 399.421 312.663 399.575 311.779 399.965L192.715 468.69L233.265 623.606L351.75 555.229C353.681 554.281 355.052 551.747 355.052 548.092L355.245 434.105C355.264 427.76 351.402 420.352 346.633 417.586Z" fill="url(#paint4_linear_453_10788)"/>
<path d="M227.743 623.122L198.353 606.062C193.584 603.296 189.722 595.888 189.741 589.504L189.954 475.518C189.954 469.134 193.816 466.214 198.604 468.999L227.975 486.059C232.744 488.825 236.606 496.234 236.587 502.617L236.394 616.604C236.374 622.967 232.512 625.888 227.743 623.122Z" fill="#7ABBDB"/>
<path d="M221.852 609.66L203.025 598.654C201.343 597.442 199.969 595.852 199.013 594.01C198.057 592.169 197.546 590.129 197.521 588.054V486.195C197.521 482.113 200.012 480.257 203.063 482.017L221.871 492.945C223.555 494.155 224.931 495.745 225.887 497.587C226.843 499.428 227.353 501.47 227.374 503.545V605.385C227.374 609.544 224.883 611.42 221.852 609.66Z" fill="#C0EAFF"/>
<path d="M212.197 593.934C210.515 592.725 209.14 591.139 208.181 589.301C207.221 587.464 206.706 585.427 206.674 583.354V484.222L203.044 482.114C199.993 480.353 197.521 482.21 197.521 486.292V588.151C197.551 590.227 198.066 592.267 199.025 594.108C199.985 595.949 201.361 597.539 203.044 598.751L221.852 609.679C224.903 611.439 227.374 609.582 227.374 605.501V602.754L212.197 593.934Z" fill="url(#paint5_linear_453_10788)"/>
<path d="M410.914 455.169L381.524 438.109C380.735 437.553 379.816 437.209 378.855 437.111C377.895 437.013 376.926 437.163 376.04 437.548L256.957 506.292L297.604 661.208L416.012 592.851C417.943 591.903 419.314 589.388 419.314 585.713L419.526 471.726C419.526 465.343 415.683 457.935 410.914 455.169Z" fill="url(#paint6_linear_453_10788)"/>
<path d="M292.004 660.705L262.614 643.645C257.845 640.879 254.002 633.471 254.002 627.088L254.214 513.101C254.214 506.737 258.076 503.816 262.865 506.582L292.235 523.643C297.005 526.409 300.867 533.817 300.847 540.2L300.654 654.187C300.635 660.551 296.773 663.491 292.004 660.705Z" fill="#7ABBDB"/>
<path d="M286.096 647.243L267.288 636.314C265.61 635.103 264.238 633.516 263.283 631.678C262.327 629.841 261.814 627.805 261.785 625.734V523.874C261.785 519.793 264.276 517.917 267.327 519.696L286.135 530.606C287.817 531.817 289.191 533.408 290.147 535.249C291.103 537.09 291.614 539.13 291.638 541.206V643.065C291.638 647.146 289.147 648.945 286.096 647.243Z" fill="#C0EAFF"/>
<path d="M276.461 631.536C274.778 630.324 273.403 628.733 272.444 626.893C271.485 625.052 270.969 623.012 270.938 620.937V521.805L267.327 519.716C264.276 517.936 261.785 519.813 261.785 523.894V625.753C261.816 627.829 262.332 629.869 263.291 631.709C264.25 633.55 265.626 635.14 267.308 636.353L286.115 647.262C289.166 649.042 291.638 647.165 291.657 643.084V640.357L276.461 631.536Z" fill="url(#paint7_linear_453_10788)"/>
<path d="M282.37 226.538L253 209.477C252.21 208.921 251.291 208.578 250.331 208.48C249.371 208.382 248.402 208.532 247.516 208.916L128.433 277.661L169.08 432.577L287.506 364.219C289.437 363.272 290.789 360.757 290.808 357.082L291.002 243.095C291.002 236.731 287.14 229.304 282.37 226.538Z" fill="url(#paint8_linear_453_10788)"/>
<path d="M163.46 432.093L134.09 415.033C129.32 412.248 125.458 404.839 125.478 398.475L125.671 284.489C125.671 278.105 129.533 275.185 134.322 277.951L163.711 294.972C168.48 297.738 172.342 305.166 172.323 311.53L172.13 425.517C172.111 431.938 168.229 434.859 163.46 432.093Z" fill="#7ABBDB"/>
<path d="M157.569 418.611L138.82 407.702C137.138 406.49 135.764 404.9 134.808 403.059C133.852 401.217 133.341 399.177 133.316 397.102V295.243C133.316 291.162 135.807 289.285 138.858 291.065L157.666 301.974C159.345 303.189 160.716 304.78 161.672 306.621C162.627 308.461 163.14 310.5 163.169 312.574V414.433C163.092 418.514 160.62 420.391 157.569 418.611Z" fill="#C0EAFF"/>
<path d="M147.935 402.905C146.253 401.692 144.878 400.102 143.919 398.261C142.96 396.421 142.444 394.381 142.413 392.305V293.173L138.821 291.104C135.77 289.324 133.299 291.104 133.279 295.282V397.141C133.308 399.217 133.822 401.258 134.781 403.099C135.74 404.94 137.118 406.53 138.802 407.741L157.59 418.65C160.641 420.43 163.132 418.553 163.132 414.472V411.745L147.935 402.905Z" fill="url(#paint9_linear_453_10788)"/>
<path d="M346.633 263.347L317.263 246.287C316.475 245.725 315.556 245.379 314.595 245.28C313.634 245.182 312.663 245.335 311.779 245.726L192.715 314.45L233.265 469.367L351.75 400.99C353.681 400.042 355.052 397.508 355.052 393.852L355.245 279.866C355.264 273.521 351.402 266.113 346.633 263.347Z" fill="url(#paint10_linear_453_10788)"/>
<path d="M227.743 468.883L198.353 451.823C193.584 449.057 189.722 441.648 189.741 435.265L189.954 321.278C189.954 314.895 193.816 311.975 198.604 314.741L227.975 331.82C232.744 334.586 236.606 341.995 236.587 348.378L236.394 462.365C236.374 468.728 232.512 471.649 227.743 468.883Z" fill="#7ABBDB"/>
<path d="M221.853 455.517L203.045 444.589C201.363 443.377 199.989 441.786 199.033 439.945C198.077 438.104 197.567 436.064 197.542 433.989V332.13C197.542 328.048 200.033 326.192 203.084 327.952L221.892 338.88C223.576 340.09 224.952 341.68 225.908 343.522C226.864 345.363 227.373 347.405 227.395 349.48V451.32C227.376 455.305 224.885 457.181 221.853 455.517Z" fill="#C0EAFF"/>
<path d="M212.197 439.695C210.515 438.486 209.139 436.899 208.18 435.062C207.221 433.225 206.706 431.188 206.674 429.114V329.983L203.121 327.855C200.07 326.095 197.599 327.952 197.599 332.033V433.892C197.628 435.968 198.143 438.009 199.103 439.849C200.062 441.69 201.438 443.28 203.121 444.492L221.852 455.517C224.903 457.277 227.374 455.517 227.374 451.339V448.593L212.197 439.695Z" fill="url(#paint11_linear_453_10788)"/>
<path d="M410.914 300.93L381.524 283.87C380.735 283.314 379.816 282.97 378.855 282.872C377.895 282.774 376.926 282.924 376.04 283.309L256.957 352.053L297.604 506.969L416.07 438.573C418.001 437.625 419.371 435.111 419.371 431.436L419.584 317.449C419.526 311.104 415.683 303.696 410.914 300.93Z" fill="url(#paint12_linear_453_10788)"/>
<path d="M292.004 506.466L262.614 489.406C257.845 486.64 254.002 479.232 254.002 472.848L254.214 358.861C254.214 352.498 258.076 349.577 262.865 352.343L292.235 369.403C297.005 372.169 300.867 379.578 300.847 385.961L300.654 499.948C300.635 506.311 296.773 509.251 292.004 506.466Z" fill="#7ABBDB"/>
<path d="M286.096 493.004L267.288 482.075C265.61 480.864 264.238 479.277 263.283 477.439C262.327 475.602 261.814 473.566 261.785 471.494V369.635C261.785 365.554 264.276 363.678 267.327 365.457L286.135 376.367C287.817 377.578 289.191 379.169 290.147 381.01C291.103 382.851 291.614 384.891 291.638 386.967V488.826C291.638 492.907 289.147 494.783 286.096 493.004Z" fill="#C0EAFF"/>
<path d="M276.461 477.297C274.778 476.085 273.403 474.494 272.444 472.654C271.485 470.813 270.969 468.773 270.938 466.698V367.566L267.327 365.477C264.276 363.697 261.785 365.574 261.785 369.655V471.514C261.816 473.59 262.332 475.63 263.291 477.47C264.25 479.311 265.626 480.901 267.308 482.114L286.115 493.023C289.166 494.803 291.638 492.926 291.657 488.845V486.118L276.461 477.297Z" fill="url(#paint13_linear_453_10788)"/>
<path d="M402.203 622.852L381.619 611.149L381.638 599.002L402.203 610.705V622.852Z" fill="#D68817"/>
<path d="M421.958 611.44L402.204 600.395L421.958 599.234V611.44Z" fill="#D68817"/>
<path d="M406.336 569.504L406.316 593.335L428.156 585.713L441.75 563.74L429.237 553.469L406.336 569.504Z" fill="#D68817"/>
<path d="M406.356 534.088L406.337 554.688L432.367 542.985L436.576 522.617L424.044 519.6L406.356 534.088Z" fill="#D68817"/>
<path d="M372.313 515.345L381.698 509.929L402.263 521.631L392.898 527.047L372.313 515.345Z" fill="#FFD501"/>
<path d="M422.016 510.277L401.432 498.574L391.835 504.068L412.419 515.77L422.016 510.277Z" fill="#FFD501"/>
<path d="M438.313 505.364L418.656 494.068L412.419 500.702L433.525 509.465L438.313 505.364Z" fill="#FFD501"/>
<path d="M381.696 497.781L402.261 509.464V521.631L381.696 509.929V497.781Z" fill="#FF8A01"/>
<path d="M401.452 486.369L422.017 498.072V510.277L401.433 498.575L401.452 486.369Z" fill="#FF8A01"/>
<path d="M411.589 480.508L432.173 492.211L422.016 498.072L401.451 486.369L411.589 480.508Z" fill="#FFD501"/>
<path d="M391.834 491.921L412.418 503.604L402.261 509.464L381.696 497.781L391.834 491.921Z" fill="#FFD501"/>
<path d="M421.958 611.439V599.234L415.547 603.006L412.361 604.844V616.991L402.224 622.794V610.646L392.858 616.062V526.969L402.224 521.573V509.406L412.361 503.603V515.77L419.506 511.631C420.355 511.147 421.167 510.683 421.958 510.277V498.071L432.115 492.269V505.499C434.119 504.862 436.271 504.862 438.275 505.499C440.477 506.305 442.306 507.896 443.411 509.967C444.863 512.823 445.53 516.014 445.342 519.213C445.29 523.645 444.433 528.03 442.813 532.153C441.226 536.454 438.907 540.446 435.958 543.952C437.615 543.473 439.373 543.468 441.032 543.94C442.691 544.412 444.184 545.341 445.342 546.622C447.505 549.156 448.606 553.005 448.606 558.227C448.542 562.654 447.826 567.047 446.482 571.264C445.167 575.707 443.215 579.936 440.689 583.818C438.35 587.377 435.41 590.499 431.999 593.044V605.791L421.958 611.439ZM406.337 569.504V593.335L418.811 586.12C422.02 584.405 425.104 582.466 428.041 580.317C430.12 578.577 431.788 576.397 432.926 573.934C434.229 571.24 434.89 568.28 434.857 565.288C435.011 563.19 434.498 561.097 433.39 559.311C432.911 558.671 432.262 558.18 431.518 557.892C430.773 557.605 429.963 557.533 429.18 557.686C427.339 557.879 423.361 559.749 417.247 563.295L406.337 569.504ZM406.337 534.088V554.688L415.161 549.581C420.413 546.544 423.677 544.571 424.951 543.624C427.225 541.959 429.087 539.796 430.397 537.299C431.686 534.793 432.348 532.012 432.328 529.194C432.457 528.162 432.373 527.114 432.08 526.115C431.788 525.117 431.294 524.19 430.628 523.391C429.489 522.327 427.809 522.25 425.569 523.198C424.282 523.765 420.42 525.88 413.983 529.542L406.337 534.088Z" fill="#FFC100"/>
<path d="M372.313 515.345L392.897 527.047L392.839 616.12L372.255 604.418L372.313 515.345Z" fill="#FF8A01"/>
<path d="M324.118 330.37L289.167 310.505V289.866L324.137 309.731L324.118 330.37Z" fill="#D68817"/>
<path d="M357.676 310.988L324.135 292.226L357.676 290.253V310.988Z" fill="#D68817"/>
<path d="M331.127 239.749L331.107 280.214L368.221 267.274L391.315 229.961L370.055 212.495L331.127 239.749Z" fill="#D68817"/>
<path d="M331.164 179.554L331.145 214.565L375.383 194.7L382.509 160.095L361.21 154.969L331.164 179.554Z" fill="#D68817"/>
<path d="M273.333 147.735L289.264 138.528L324.214 158.393L308.284 167.6L273.333 147.735Z" fill="#FFD501"/>
<path d="M357.774 139.128L322.824 119.263L306.507 128.567L341.458 148.451L357.774 139.128Z" fill="#FFD501"/>
<path d="M385.445 130.772L352.078 111.583L341.477 122.841L377.335 137.754L385.445 130.772Z" fill="#FFD501"/>
<path d="M289.282 117.889L324.233 137.754L324.213 158.393L289.263 138.528L289.282 117.889Z" fill="#FF8A01"/>
<path d="M322.843 98.5079L357.793 118.373L357.774 139.128L322.823 119.263L322.843 98.5079Z" fill="#FF8A01"/>
<path d="M340.085 88.5464L375.036 108.411L357.793 118.373L322.842 98.5079L340.085 88.5464Z" fill="#FFD501"/>
<path d="M306.525 107.928L341.476 127.793L324.232 137.754L289.281 117.889L306.525 107.928Z" fill="#FFD501"/>
<path d="M357.677 310.988V290.253C354.433 292.187 350.803 294.315 346.787 296.636L341.361 299.769V320.408L324.194 330.37V309.731L308.264 318.919V167.6L324.175 158.393V137.754L341.573 127.793V148.451L353.719 141.429C355.167 140.598 356.557 139.824 357.89 139.128V118.373L375.133 108.411V130.926C378.509 129.795 382.153 129.741 385.561 130.772C389.261 132.128 392.328 134.808 394.173 138.296C396.703 143.122 397.903 148.537 397.649 153.983C397.559 161.515 396.1 168.968 393.342 175.976C390.663 183.275 386.743 190.054 381.757 196.015C388.67 194.719 393.96 196.228 397.687 200.541C401.414 204.854 403.229 211.412 403.229 220.155C403.089 227.707 401.833 235.196 399.502 242.379C397.252 249.91 393.928 257.076 389.635 263.656C385.667 269.701 380.667 274.999 374.863 279.305V300.988L357.677 310.988ZM331.126 239.749V280.214L352.367 267.97C357.829 265.018 363.075 261.683 368.066 257.989C371.593 255.024 374.427 251.32 376.369 247.138C378.552 242.549 379.656 237.52 379.594 232.437C379.851 228.883 378.986 225.337 377.122 222.302C376.308 221.218 375.208 220.383 373.946 219.89C372.683 219.398 371.309 219.269 369.978 219.516C366.85 219.877 360.085 223.062 349.683 229.072L331.126 239.749ZM331.126 179.554V214.564L346.13 205.899C355.038 200.741 360.574 197.369 362.737 195.783C366.61 192.964 369.776 189.282 371.986 185.028C374.21 180.786 375.37 176.066 375.365 171.275C375.365 166.594 374.4 163.371 372.469 161.604C370.538 159.837 367.667 159.728 363.856 161.275C361.578 162.242 355.058 165.834 344.296 172.049L331.126 179.554Z" fill="#FFC100"/>
<path d="M273.332 147.735L308.283 167.6L308.206 318.919L273.255 299.054L273.332 147.735Z" fill="#FF8A01"/>
<path d="M40.824 334.18L34.2007 324.644L51.1161 314.509C51.809 314.015 52.5385 313.576 53.2981 313.193L53.6843 312.961C59.2648 310.369 66.2743 311.027 73.8437 315.514C78.4706 318.407 82.6094 322.017 86.1054 326.211L97.305 319.422C98.0161 318.94 98.7508 318.495 99.5064 318.087C106.805 314.218 116.151 314.934 126.27 321.008C149.287 334.78 167.631 371.299 167.264 402.402C167.224 404.988 167.05 407.571 166.743 410.139C179.294 421.88 188.466 442.906 188.254 461.282C188.119 472.055 184.778 479.889 179.487 483.835C178.742 484.385 177.947 484.864 177.112 485.267L160.351 495.305L144.904 478.264L145.83 475.46L50.1699 419.927C33.4476 409.907 20.1046 383.427 20.3943 360.757C20.6067 343.02 29.103 332.923 40.824 334.18Z" fill="#FFE6A7"/>
<path d="M86.1234 326.25C82.6274 322.056 78.4886 318.446 73.8617 315.553C66.2923 311.007 59.2829 310.408 53.7024 313L53.3161 313.232C52.5566 313.614 51.8271 314.054 51.1341 314.547L34.2188 324.683L39.5483 332.42L69.5363 341.279L86.1234 326.25Z" fill="#FFE092"/>
<path d="M177.151 485.344C177.985 484.942 178.78 484.462 179.526 483.912C184.817 479.947 188.157 472.133 188.292 461.339C188.505 442.964 179.333 421.957 166.781 410.216L147.472 421.822L150.04 483.99L160.39 495.383L177.151 485.344Z" fill="#FFE092"/>
<path d="M20.9165 345.674C23.3302 325.577 37.0788 317.201 53.4728 327.008C59.3085 330.69 64.3933 335.449 68.4571 341.032C75.5824 326.911 89.6979 322.811 105.937 332.501C128.955 346.273 147.318 382.793 146.932 413.896C146.901 416.482 146.727 419.065 146.411 421.633C158.962 433.374 168.153 454.38 167.922 472.756C167.671 494.342 154.521 504.11 138.59 494.555L29.799 431.382C13.0574 421.362 -0.266295 394.882 0.00404208 372.231C0.216449 354.243 8.94444 344.088 20.9165 345.674Z" fill="#FFD56A"/>
<path d="M218.512 224.719C218.518 226.677 218.008 228.602 217.036 230.3C216.063 231.997 214.66 233.409 212.97 234.391V194.738C212.97 192.63 213.566 190.564 214.688 188.781L245.024 140.617C246.163 138.833 246.767 136.758 246.762 134.64V86.7281C246.762 85.9791 247.059 85.2608 247.588 84.7312C248.116 84.2016 248.833 83.9041 249.581 83.9041C250.329 83.9041 251.046 84.2016 251.575 84.7312C252.103 85.2608 252.4 85.9791 252.4 86.7281V136.362C252.402 138.479 251.799 140.553 250.662 142.339L220.25 190.521C219.113 192.3 218.509 194.367 218.512 196.479V224.719Z" fill="#7AF0FF"/>
<path d="M201.499 234.565C201.503 236.527 200.989 238.455 200.009 240.153C199.029 241.852 197.618 243.261 195.919 244.236V189.303C195.924 187.186 196.526 185.114 197.657 183.326L228.108 135.163C229.248 133.378 229.851 131.304 229.846 129.186V31.9108C229.846 31.1619 230.143 30.4435 230.672 29.9139C231.201 29.3843 231.918 29.0868 232.665 29.0868C233.41 29.0919 234.122 29.3917 234.646 29.9207C235.171 30.4498 235.465 31.1652 235.465 31.9108V130.81C235.467 132.925 234.872 134.998 233.747 136.787L203.295 184.951C202.158 186.729 201.555 188.797 201.557 190.908L201.499 234.565Z" fill="#7AF0FF"/>
<path d="M233.767 40.8664C229.017 43.6905 225.097 40.8664 225.02 34.406V33.845C225.02 27.4619 228.746 19.9762 233.496 17.1522C238.247 14.3282 242.167 17.1522 242.244 23.6127V24.1736C242.321 30.5567 238.536 38.0424 233.767 40.8664Z" fill="#7AF0FF"/>
<path d="M251.01 88.8365C246.26 91.6605 242.34 88.8365 242.263 82.3566V81.7957C242.263 75.3932 245.97 67.9269 250.74 65.1029C255.49 62.2595 259.41 65.1029 259.487 71.5634V72.1243C259.564 78.5268 255.78 86.0704 251.01 88.8365Z" fill="#7AF0FF"/>
<path opacity="0.3" d="M233.94 55.567C223.3 61.892 214.515 55.4122 214.36 41.0986V39.8219C214.186 25.5083 222.683 8.75745 233.342 2.43237C244.001 -3.91206 252.767 2.58711 252.941 16.9008V18.1774C253.095 32.491 244.599 49.3192 233.94 55.567Z" fill="#F8FFFF"/>
<path opacity="0.3" d="M251.184 103.15C240.679 109.378 232.048 102.995 231.874 88.8751V87.6372C231.72 73.5169 240.081 57.0176 250.585 50.7699C261.09 44.5415 269.721 50.9246 269.895 65.0448V66.2828C270.127 80.403 261.669 96.9024 251.184 103.15Z" fill="#F8FFFF"/>
<path d="M380.908 449.985C380.91 450.953 380.657 451.903 380.176 452.742C379.694 453.581 379.001 454.278 378.166 454.763V435.169C378.164 434.128 378.459 433.108 379.016 432.229L394.058 408.437C394.621 407.553 394.922 406.526 394.927 405.478V381.821C394.927 381.45 395.073 381.094 395.333 380.83C395.593 380.565 395.947 380.414 396.317 380.409C396.688 380.414 397.041 380.565 397.301 380.83C397.562 381.094 397.708 381.45 397.707 381.821V406.29C397.703 407.339 397.401 408.365 396.839 409.249L381.796 433.041C381.238 433.919 380.943 434.94 380.947 435.981L380.908 449.985Z" fill="#7AF0FF"/>
<path d="M372.47 454.84C372.468 455.809 372.212 456.76 371.727 457.599C371.242 458.437 370.547 459.133 369.709 459.618V432.538C369.707 431.491 370.002 430.465 370.559 429.579L385.601 405.787C386.165 404.91 386.467 403.89 386.47 402.847V354.683C386.47 354.314 386.616 353.96 386.877 353.699C387.138 353.437 387.491 353.291 387.86 353.291C388.229 353.291 388.583 353.437 388.843 353.699C389.104 353.96 389.25 354.314 389.25 354.683V403.601C389.254 404.643 388.959 405.663 388.401 406.541L373.339 430.333C372.798 431.219 372.505 432.234 372.49 433.273L372.47 454.84Z" fill="#7AF0FF"/>
<path d="M388.44 359.151C386.103 360.544 384.153 359.152 384.114 355.96V355.689C384.121 354.08 384.503 352.496 385.231 351.061C385.959 349.627 387.011 348.384 388.304 347.43C390.66 346.037 392.591 347.43 392.63 350.621V350.911C392.625 352.518 392.243 354.1 391.515 355.532C390.787 356.963 389.734 358.203 388.44 359.151Z" fill="#7AF0FF"/>
<path d="M396.954 382.846C394.618 384.239 392.668 382.846 392.648 379.655V379.384C392.655 377.775 393.038 376.191 393.765 374.756C394.493 373.322 395.545 372.078 396.839 371.125C399.194 369.732 401.125 371.125 401.164 374.316V374.606C401.157 376.214 400.772 377.798 400.04 379.229C399.309 380.661 398.252 381.9 396.954 382.846Z" fill="#7AF0FF"/>
<path opacity="0.3" d="M388.516 365.612C383.573 368.552 379.518 365.612 379.44 358.9V358.32C379.44 351.666 383.302 343.909 388.246 340.911C393.189 337.971 397.263 340.911 397.341 347.623V348.204C397.399 354.935 393.459 362.672 388.516 365.612Z" fill="#F8FFFF"/>
<path opacity="0.3" d="M397.033 389.307C392.089 392.247 388.034 389.307 387.957 382.595V382.015C387.957 375.361 391.819 367.604 396.762 364.606C401.706 361.666 405.78 364.606 405.857 371.318V371.898C405.915 378.61 401.976 386.367 397.033 389.307Z" fill="#F8FFFF"/>
<path d="M336.36 630.144C336.362 631.111 336.109 632.062 335.628 632.901C335.147 633.739 334.454 634.436 333.618 634.922V615.347C333.616 614.3 333.911 613.273 334.468 612.387L349.51 588.596C350.074 587.719 350.376 586.699 350.379 585.656V561.903C350.379 561.533 350.526 561.179 350.786 560.918C351.047 560.657 351.401 560.51 351.769 560.51C352.138 560.51 352.492 560.657 352.752 560.918C353.013 561.179 353.16 561.533 353.16 561.903V586.468C353.155 587.508 352.861 588.526 352.31 589.408L337.248 613.2C336.704 614.092 336.411 615.114 336.399 616.159L336.36 630.144Z" fill="#7AF0FF"/>
<path d="M328.058 635.018C328.052 635.984 327.795 636.931 327.31 637.766C326.826 638.601 326.132 639.294 325.297 639.777V612.697C325.302 611.657 325.596 610.638 326.147 609.757L341.208 585.965C341.752 585.073 342.046 584.051 342.058 583.006V534.823C342.058 534.453 342.204 534.099 342.465 533.838C342.726 533.577 343.079 533.43 343.448 533.43C343.817 533.43 344.17 533.577 344.431 533.838C344.692 534.099 344.838 534.453 344.838 534.823V583.76C344.84 584.807 344.546 585.833 343.989 586.719L328.946 610.511C328.382 611.388 328.081 612.408 328.077 613.451L328.058 635.018Z" fill="#7AF0FF"/>
<path d="M343.912 539.33C341.557 540.722 339.626 539.33 339.587 536.119V535.848C339.603 534.241 339.989 532.659 340.716 531.226C341.443 529.794 342.491 528.549 343.777 527.588C346.133 526.196 348.064 527.588 348.103 530.799V531.07C348.093 532.678 347.709 534.262 346.982 535.696C346.254 537.13 345.203 538.374 343.912 539.33Z" fill="#7AF0FF"/>
<path d="M352.427 563.024C350.071 564.417 348.14 563.024 348.102 559.813V559.543C348.117 557.936 348.504 556.354 349.231 554.921C349.957 553.488 351.005 552.243 352.292 551.283C354.648 549.891 356.578 551.283 356.617 554.494V554.765C356.607 556.373 356.224 557.957 355.496 559.391C354.769 560.824 353.718 562.068 352.427 563.024Z" fill="#7AF0FF"/>
<path opacity="0.3" d="M343.968 545.79C339.044 548.711 334.97 545.79 334.893 539.078V538.478C334.893 531.844 338.755 524.068 343.698 521.07C348.641 518.149 352.716 521.07 352.793 527.801V528.382C352.851 535.074 348.911 542.85 343.968 545.79Z" fill="#F8FFFF"/>
<path opacity="0.3" d="M352.485 569.485C347.561 572.406 343.486 569.485 343.409 562.773V562.173C343.409 555.539 347.271 547.763 352.214 544.765C357.158 541.844 361.232 544.765 361.309 551.496V552.076C361.386 558.769 357.428 566.545 352.485 569.485Z" fill="#F8FFFF"/>
<defs>
<linearGradient id="paint0_linear_453_10788" x1="392.57" y1="417.799" x2="414.18" y2="372.14" gradientUnits="userSpaceOnUse">
<stop stop-color="#3D4AFF"/>
<stop offset="1" stop-color="#65D9FF"/>
</linearGradient>
<linearGradient id="paint1_linear_453_10788" x1="392.552" y1="417.799" x2="414.181" y2="372.14" gradientUnits="userSpaceOnUse">
<stop stop-color="#3D4AFF"/>
<stop offset="1" stop-color="#65D9FF"/>
</linearGradient>
<linearGradient id="paint2_linear_453_10788" x1="204.088" y1="445.208" x2="195.861" y2="431.216" gradientUnits="userSpaceOnUse">
<stop stop-color="#4DADDC"/>
<stop offset="1" stop-color="#A2DAF6"/>
</linearGradient>
<linearGradient id="paint3_linear_453_10788" x1="159.116" y1="533.525" x2="166.099" y2="544.112" gradientUnits="userSpaceOnUse">
<stop stop-color="#1689C2"/>
<stop offset="1" stop-color="#A3DBF7"/>
</linearGradient>
<linearGradient id="paint4_linear_453_10788" x1="268.353" y1="482.004" x2="260.125" y2="468.015" gradientUnits="userSpaceOnUse">
<stop stop-color="#4DADDC"/>
<stop offset="1" stop-color="#A2DAF6"/>
</linearGradient>
<linearGradient id="paint5_linear_453_10788" x1="223.341" y1="570.366" x2="230.331" y2="580.95" gradientUnits="userSpaceOnUse">
<stop stop-color="#1689C2"/>
<stop offset="1" stop-color="#A3DBF7"/>
</linearGradient>
<linearGradient id="paint6_linear_453_10788" x1="332.613" y1="519.6" x2="324.385" y2="505.608" gradientUnits="userSpaceOnUse">
<stop stop-color="#4DADDC"/>
<stop offset="1" stop-color="#A2DAF6"/>
</linearGradient>
<linearGradient id="paint7_linear_453_10788" x1="287.622" y1="607.958" x2="294.609" y2="618.546" gradientUnits="userSpaceOnUse">
<stop stop-color="#1689C2"/>
<stop offset="1" stop-color="#A3DBF7"/>
</linearGradient>
<linearGradient id="paint8_linear_453_10788" x1="204.088" y1="290.968" x2="195.861" y2="276.977" gradientUnits="userSpaceOnUse">
<stop stop-color="#4DADDC"/>
<stop offset="1" stop-color="#A2DAF6"/>
</linearGradient>
<linearGradient id="paint9_linear_453_10788" x1="159.099" y1="379.341" x2="166.089" y2="389.926" gradientUnits="userSpaceOnUse">
<stop stop-color="#1689C2"/>
<stop offset="1" stop-color="#A3DBF7"/>
</linearGradient>
<linearGradient id="paint10_linear_453_10788" x1="268.353" y1="327.765" x2="260.125" y2="313.775" gradientUnits="userSpaceOnUse">
<stop stop-color="#4DADDC"/>
<stop offset="1" stop-color="#A2DAF6"/>
</linearGradient>
<linearGradient id="paint11_linear_453_10788" x1="223.352" y1="416.183" x2="230.356" y2="426.755" gradientUnits="userSpaceOnUse">
<stop stop-color="#1689C2"/>
<stop offset="1" stop-color="#A3DBF7"/>
</linearGradient>
<linearGradient id="paint12_linear_453_10788" x1="332.64" y1="365.361" x2="324.414" y2="351.366" gradientUnits="userSpaceOnUse">
<stop stop-color="#4DADDC"/>
<stop offset="1" stop-color="#A2DAF6"/>
</linearGradient>
<linearGradient id="paint13_linear_453_10788" x1="287.622" y1="453.719" x2="294.609" y2="464.307" gradientUnits="userSpaceOnUse">
<stop stop-color="#1689C2"/>
<stop offset="1" stop-color="#A3DBF7"/>
</linearGradient>
</defs>
</svg>
